{
  "asset": {
    "version": "2.0",
    "generator": "A-Life true_25d alpha generator"
  },
  "scene": 0,
  "scenes": [
    {
      "nodes": [
        0
      ]
    }
  ],
  "nodes": [
    {
      "name": "creature_idle",
      "mesh": 0
    }
  ],
  "meshes": [
    {
      "name": "creature_idle-mesh",
      "primitives": [
        {
          "attributes": {
            "POSITION": 0,
            "NORMAL": 1
          },
          "indices": 2,
          "material": 0
        },
        {
          "attributes": {
            "POSITION": 3,
            "NORMAL": 4
          },
          "indices": 5,
          "material": 1
        },
        {
          "attributes": {
            "POSITION": 6,
            "NORMAL": 7
          },
          "indices": 8,
          "material": 2
        },
        {
          "attributes": {
            "POSITION": 9,
            "NORMAL": 10
          },
          "indices": 11,
          "material": 3
        },
        {
          "attributes": {
            "POSITION": 12,
            "NORMAL": 13
          },
          "indices": 14,
          "material": 4
        },
        {
          "attributes": {
            "POSITION": 15,
            "NORMAL": 16
          },
          "indices": 17,
          "material": 5
        },
        {
          "attributes": {
            "POSITION": 18,
            "NORMAL": 19
          },
          "indices": 20,
          "material": 6
        },
        {
          "attributes": {
            "POSITION": 21,
            "NORMAL": 22
          },
          "indices": 23,
          "material": 7
        }
      ]
    }
  ],
  "materials": [
    {
      "name": "creature_idle-soft-body-toon",
      "doubleSided": true,
      "emissiveFactor": [
        0.032,
        0.164,
        0.18000000000000002
      ],
      "pbrMetallicRoughness": {
        "baseColorFactor": [
          0.16,
          0.82,
          0.9,
          1.0
        ],
        "metallicFactor": 0.0,
        "roughnessFactor": 0.82
      }
    },
    {
      "name": "creature_idle-bio-glow-toon",
      "doubleSided": true,
      "emissiveFactor": [
        0.144,
        0.2,
        0.19
      ],
      "pbrMetallicRoughness": {
        "baseColorFactor": [
          0.72,
          1.0,
          0.95,
          0.78
        ],
        "metallicFactor": 0.0,
        "roughnessFactor": 0.82
      },
      "alphaMode": "BLEND",
      "alphaCutoff": 0.02
    },
    {
      "name": "creature_idle-left-eye-toon",
      "doubleSided": true,
      "emissiveFactor": [
        0.004,
        0.014000000000000002,
        0.016
      ],
      "pbrMetallicRoughness": {
        "baseColorFactor": [
          0.02,
          0.07,
          0.08,
          1.0
        ],
        "metallicFactor": 0.0,
        "roughnessFactor": 0.82
      }
    },
    {
      "name": "creature_idle-right-eye-toon",
      "doubleSided": true,
      "emissiveFactor": [
        0.004,
        0.014000000000000002,
        0.016
      ],
      "pbrMetallicRoughness": {
        "baseColorFactor": [
          0.02,
          0.07,
          0.08,
          1.0
        ],
        "metallicFactor": 0.0,
        "roughnessFactor": 0.82
      }
    },
    {
      "name": "creature_idle-antenna-a-toon",
      "doubleSided": true,
      "emissiveFactor": [
        0.032,
        0.164,
        0.18000000000000002
      ],
      "pbrMetallicRoughness": {
        "baseColorFactor": [
          0.16,
          0.82,
          0.9,
          1.0
        ],
        "metallicFactor": 0.0,
        "roughnessFactor": 0.82
      }
    },
    {
      "name": "creature_idle-antenna-b-toon",
      "doubleSided": true,
      "emissiveFactor": [
        0.032,
        0.164,
        0.18000000000000002
      ],
      "pbrMetallicRoughness": {
        "baseColorFactor": [
          0.16,
          0.82,
          0.9,
          1.0
        ],
        "metallicFactor": 0.0,
        "roughnessFactor": 0.82
      }
    },
    {
      "name": "creature_idle-foot-a-toon",
      "doubleSided": true,
      "emissiveFactor": [
        0.012,
        0.10400000000000001,
        0.11399999999999999
      ],
      "pbrMetallicRoughness": {
        "baseColorFactor": [
          0.06,
          0.52,
          0.57,
          1.0
        ],
        "metallicFactor": 0.0,
        "roughnessFactor": 0.82
      }
    },
    {
      "name": "creature_idle-foot-b-toon",
      "doubleSided": true,
      "emissiveFactor": [
        0.012,
        0.10400000000000001,
        0.11399999999999999
      ],
      "pbrMetallicRoughness": {
        "baseColorFactor": [
          0.06,
          0.52,
          0.57,
          1.0
        ],
        "metallicFactor": 0.0,
        "roughnessFactor": 0.82
      }
    }
  ],
  "buffers": [
    {
      "byteLength": 5316,
      "uri": "data:application/octet-stream;base64,"
    }
  ],
  "bufferViews": [
    {
      "buffer": 0,
      "byteOffset": 0,
      "byteLength": 456,
      "target": 34962
    },
    {
      "buffer": 0,
      "byteOffset": 456,
      "byteLength": 456,
      "target": 34962
    },
    {
      "buffer": 0,
      "byteOffset": 912,
      "byteLength": 432,
      "target": 34963
    },
    {
      "buffer": 0,
      "byteOffset": 1344,
      "byteLength": 264,
      "target": 34962
    },
    {
      "buffer": 0,
      "byteOffset": 1608,
      "byteLength": 264,
      "target": 34962
    },
    {
      "buffer": 0,
      "byteOffset": 1872,
      "byteLength": 240,
      "target": 34963
    },
    {
      "buffer": 0,
      "byteOffset": 2112,
      "byteLength": 216,
      "target": 34962
    },
    {
      "buffer": 0,
      "byteOffset": 2328,
      "byteLength": 216,
      "target": 34962
    },
    {
      "buffer": 0,
      "byteOffset": 2544,
      "byteLength": 192,
      "target": 34963
    },
    {
      "buffer": 0,
      "byteOffset": 2736,
      "byteLength": 216,
      "target": 34962
    },
    {
      "buffer": 0,
      "byteOffset": 2952,
      "byteLength": 216,
      "target": 34962
    },
    {
      "buffer": 0,
      "byteOffset": 3168,
      "byteLength": 192,
      "target": 34963
    },
    {
      "buffer": 0,
      "byteOffset": 3360,
      "byteLength": 132,
      "target": 34962
    },
    {
      "buffer": 0,
      "byteOffset": 3492,
      "byteLength": 132,
      "target": 34962
    },
    {
      "buffer": 0,
      "byteOffset": 3624,
      "byteLength": 90,
      "target": 34963
    },
    {
      "buffer": 0,
      "byteOffset": 3714,
      "byteLength": 132,
      "target": 34962
    },
    {
      "buffer": 0,
      "byteOffset": 3846,
      "byteLength": 132,
      "target": 34962
    },
    {
      "buffer": 0,
      "byteOffset": 3978,
      "byteLength": 90,
      "target": 34963
    },
    {
      "buffer": 0,
      "byteOffset": 4068,
      "byteLength": 216,
      "target": 34962
    },
    {
      "buffer": 0,
      "byteOffset": 4284,
      "byteLength": 216,
      "target": 34962
    },
    {
      "buffer": 0,
      "byteOffset": 4500,
      "byteLength": 192,
      "target": 34963
    },
    {
      "buffer": 0,
      "byteOffset": 4692,
      "byteLength": 216,
      "target": 34962
    },
    {
      "buffer": 0,
      "byteOffset": 4908,
      "byteLength": 216,
      "target": 34962
    },
    {
      "buffer": 0,
      "byteOffset": 5124,
      "byteLength": 192,
      "target": 34963
    }
  ],
  "accessors": [
    {
      "bufferView": 0,
      "componentType": 5126,
      "count": 38,
      "type": "VEC3",
      "min": [
        -0.44,
        0.08399999999999999,
        -0.35
      ],
      "max": [
        0.44,
        0.6,
        0.35
      ]
    },
    {
      "bufferView": 1,
      "componentType": 5126,
      "count": 38,
      "type": "VEC3"
    },
    {
      "bufferView": 2,
      "componentType": 5123,
      "count": 216,
      "type": "SCALAR"
    },
    {
      "bufferView": 3,
      "componentType": 5126,
      "count": 22,
      "type": "VEC3",
      "min": [
        -0.24248711305964285,
        0.40240000000000004,
        -0.47120060278019305
      ],
      "max": [
        0.24248711305964285,
        0.54,
        -0.10879939721980694
      ]
    },
    {
      "bufferView": 4,
      "componentType": 5126,
      "count": 22,
      "type": "VEC3"
    },
    {
      "bufferView": 5,
      "componentType": 5123,
      "count": 120,
      "type": "SCALAR"
    },
    {
      "bufferView": 6,
      "componentType": 5126,
      "count": 18,
      "type": "VEC3",
      "min": [
        -0.17897114317029975,
        0.4768,
        -0.35897114317029977
      ],
      "max": [
        -0.10102885682970028,
        0.5800000000000001,
        -0.28102885682970025
      ]
    },
    {
      "bufferView": 7,
      "componentType": 5126,
      "count": 18,
      "type": "VEC3"
    },
    {
      "bufferView": 8,
      "componentType": 5123,
      "count": 96,
      "type": "SCALAR"
    },
    {
      "bufferView": 9,
      "componentType": 5126,
      "count": 18,
      "type": "VEC3",
      "min": [
        0.10102885682970028,
        0.4768,
        -0.35897114317029977
      ],
      "max": [
        0.17897114317029975,
        0.5800000000000001,
        -0.28102885682970025
      ]
    },
    {
      "bufferView": 10,
      "componentType": 5126,
      "count": 18,
      "type": "VEC3"
    },
    {
      "bufferView": 11,
      "componentType": 5123,
      "count": 96,
      "type": "SCALAR"
    },
    {
      "bufferView": 12,
      "componentType": 5126,
      "count": 11,
      "type": "VEC3",
      "min": [
        -0.19022542485937372,
        0.54,
        -0.06902113032590308
      ],
      "max": [
        -0.14500000000000002,
        0.9825,
        -0.03097886967409693
      ]
    },
    {
      "bufferView": 13,
      "componentType": 5126,
      "count": 11,
      "type": "VEC3"
    },
    {
      "bufferView": 14,
      "componentType": 5123,
      "count": 45,
      "type": "SCALAR"
    },
    {
      "bufferView": 15,
      "componentType": 5126,
      "count": 11,
      "type": "VEC3",
      "min": [
        0.16977457514062633,
        0.52,
        -0.04902113032590308
      ],
      "max": [
        0.215,
        0.9025000000000001,
        -0.010978869674096926
      ]
    },
    {
      "bufferView": 16,
      "componentType": 5126,
      "count": 11,
      "type": "VEC3"
    },
    {
      "bufferView": 17,
      "componentType": 5123,
      "count": 45,
      "type": "SCALAR"
    },
    {
      "bufferView": 18,
      "componentType": 5126,
      "count": 18,
      "type": "VEC3",
      "min": [
        -0.29258330249197706,
        0.021200000000000004,
        -0.16062177826491073
      ],
      "max": [
        -0.06741669750802295,
        0.09,
        -0.03937822173508929
      ]
    },
    {
      "bufferView": 19,
      "componentType": 5126,
      "count": 18,
      "type": "VEC3"
    },
    {
      "bufferView": 20,
      "componentType": 5123,
      "count": 96,
      "type": "SCALAR"
    },
    {
      "bufferView": 21,
      "componentType": 5126,
      "count": 18,
      "type": "VEC3",
      "min": [
        0.06741669750802295,
        0.021200000000000004,
        -0.16062177826491073
      ],
      "max": [
        0.29258330249197706,
        0.09,
        -0.03937822173508929
      ]
    },
    {
      "bufferView": 22,
      "componentType": 5126,
      "count": 18,
      "type": "VEC3"
    },
    {
      "bufferView": 23,
      "componentType": 5123,
      "count": 96,
      "type": "SCALAR"
    }
  ]
}