{
  "asset": {
    "version": "2.0",
    "generator": "A-Life true_25d alpha generator"
  },
  "scene": 0,
  "scenes": [
    {
      "nodes": [
        0
      ]
    }
  ],
  "nodes": [
    {
      "name": "fog_of_war_cell",
      "mesh": 0
    }
  ],
  "meshes": [
    {
      "name": "fog_of_war_cell-mesh",
      "primitives": [
        {
          "attributes": {
            "POSITION": 0,
            "NORMAL": 1
          },
          "indices": 2,
          "material": 0
        }
      ]
    }
  ],
  "materials": [
    {
      "name": "fog_of_war_cell-soft-fog-toon",
      "doubleSided": true,
      "emissiveFactor": [
        0.006,
        0.010000000000000002,
        0.010000000000000002
      ],
      "pbrMetallicRoughness": {
        "baseColorFactor": [
          0.03,
          0.05,
          0.05,
          0.18
        ],
        "metallicFactor": 0.0,
        "roughnessFactor": 0.82
      },
      "alphaMode": "BLEND",
      "alphaCutoff": 0.02
    }
  ],
  "buffers": [
    {
      "byteLength": 684,
      "uri": "data:application/octet-stream;base64,"
    }
  ],
  "bufferViews": [
    {
      "buffer": 0,
      "byteOffset": 0,
      "byteLength": 252,
      "target": 34962
    },
    {
      "buffer": 0,
      "byteOffset": 252,
      "byteLength": 252,
      "target": 34962
    },
    {
      "buffer": 0,
      "byteOffset": 504,
      "byteLength": 180,
      "target": 34963
    }
  ],
  "accessors": [
    {
      "bufferView": 0,
      "componentType": 5126,
      "count": 21,
      "type": "VEC3",
      "min": [
        -1.2938060935068985,
        0.0,
        -1.2158091216602824
      ],
      "max": [
        1.5201292530967079,
        0.05774350162232107,
        1.2197026728449305
      ]
    },
    {
      "bufferView": 1,
      "componentType": 5126,
      "count": 21,
      "type": "VEC3"
    },
    {
      "bufferView": 2,
      "componentType": 5123,
      "count": 90,
      "type": "SCALAR"
    }
  ]
}