{
  "asset": {
    "version": "2.0",
    "generator": "A-Life true_25d alpha generator"
  },
  "scene": 0,
  "scenes": [
    {
      "nodes": [
        0
      ]
    }
  ],
  "nodes": [
    {
      "name": "hazard_crystal",
      "mesh": 0
    }
  ],
  "meshes": [
    {
      "name": "hazard_crystal-mesh",
      "primitives": [
        {
          "attributes": {
            "POSITION": 0,
            "NORMAL": 1
          },
          "indices": 2,
          "material": 0
        },
        {
          "attributes": {
            "POSITION": 3,
            "NORMAL": 4
          },
          "indices": 5,
          "material": 1
        }
      ]
    }
  ],
  "materials": [
    {
      "name": "hazard_crystal-red-crystal-toon",
      "doubleSided": true,
      "emissiveFactor": [
        0.2,
        0.024,
        0.032
      ],
      "pbrMetallicRoughness": {
        "baseColorFactor": [
          1.0,
          0.12,
          0.16,
          1.0
        ],
        "metallicFactor": 0.0,
        "roughnessFactor": 0.82
      }
    },
    {
      "name": "hazard_crystal-hot-core-toon",
      "doubleSided": true,
      "emissiveFactor": [
        0.2,
        0.124,
        0.068
      ],
      "pbrMetallicRoughness": {
        "baseColorFactor": [
          1.0,
          0.62,
          0.34,
          0.78
        ],
        "metallicFactor": 0.0,
        "roughnessFactor": 0.82
      },
      "alphaMode": "BLEND",
      "alphaCutoff": 0.02
    }
  ],
  "buffers": [
    {
      "byteLength": 624,
      "uri": "data:application/octet-stream;base64,"
    }
  ],
  "bufferViews": [
    {
      "buffer": 0,
      "byteOffset": 0,
      "byteLength": 180,
      "target": 34962
    },
    {
      "buffer": 0,
      "byteOffset": 180,
      "byteLength": 180,
      "target": 34962
    },
    {
      "buffer": 0,
      "byteOffset": 360,
      "byteLength": 108,
      "target": 34963
    },
    {
      "buffer": 0,
      "byteOffset": 468,
      "byteLength": 60,
      "target": 34962
    },
    {
      "buffer": 0,
      "byteOffset": 528,
      "byteLength": 60,
      "target": 34962
    },
    {
      "buffer": 0,
      "byteOffset": 588,
      "byteLength": 36,
      "target": 34963
    }
  ],
  "accessors": [
    {
      "bufferView": 0,
      "componentType": 5126,
      "count": 15,
      "type": "VEC3",
      "min": [
        -0.35,
        0.0,
        -0.252
      ],
      "max": [
        0.33999999999999997,
        0.72,
        0.21700000000000003
      ]
    },
    {
      "bufferView": 1,
      "componentType": 5126,
      "count": 15,
      "type": "VEC3"
    },
    {
      "bufferView": 2,
      "componentType": 5123,
      "count": 54,
      "type": "SCALAR"
    },
    {
      "bufferView": 3,
      "componentType": 5126,
      "count": 5,
      "type": "VEC3",
      "min": [
        -0.03,
        0.0,
        -0.094
      ],
      "max": [
        0.15,
        0.62,
        0.013999999999999999
      ]
    },
    {
      "bufferView": 4,
      "componentType": 5126,
      "count": 5,
      "type": "VEC3"
    },
    {
      "bufferView": 5,
      "componentType": 5123,
      "count": 18,
      "type": "SCALAR"
    }
  ]
}