{
  "asset": {
    "version": "2.0",
    "generator": "A-Life true_25d alpha generator"
  },
  "scene": 0,
  "scenes": [
    {
      "nodes": [
        0
      ]
    }
  ],
  "nodes": [
    {
      "name": "selection_ring",
      "mesh": 0
    }
  ],
  "meshes": [
    {
      "name": "selection_ring-mesh",
      "primitives": [
        {
          "attributes": {
            "POSITION": 0,
            "NORMAL": 1
          },
          "indices": 2,
          "material": 0
        },
        {
          "attributes": {
            "POSITION": 3,
            "NORMAL": 4
          },
          "indices": 5,
          "material": 1
        },
        {
          "attributes": {
            "POSITION": 6,
            "NORMAL": 7
          },
          "indices": 8,
          "material": 2
        }
      ]
    }
  ],
  "materials": [
    {
      "name": "selection_ring-gold-ring-toon",
      "doubleSided": true,
      "emissiveFactor": [
        0.19,
        0.2,
        0.05600000000000001
      ],
      "pbrMetallicRoughness": {
        "baseColorFactor": [
          0.95,
          1.0,
          0.28,
          0.82
        ],
        "metallicFactor": 0.0,
        "roughnessFactor": 0.82
      },
      "alphaMode": "BLEND",
      "alphaCutoff": 0.02
    },
    {
      "name": "selection_ring-cutout-shadow-toon",
      "doubleSided": true,
      "emissiveFactor": [
        0.012,
        0.06999999999999999,
        0.06
      ],
      "pbrMetallicRoughness": {
        "baseColorFactor": [
          0.06,
          0.35,
          0.3,
          0.42
        ],
        "metallicFactor": 0.0,
        "roughnessFactor": 0.82
      },
      "alphaMode": "BLEND",
      "alphaCutoff": 0.02
    },
    {
      "name": "selection_ring-bio-halo-toon",
      "doubleSided": true,
      "emissiveFactor": [
        0.084,
        0.2,
        0.164
      ],
      "pbrMetallicRoughness": {
        "baseColorFactor": [
          0.42,
          1.0,
          0.82,
          0.32
        ],
        "metallicFactor": 0.0,
        "roughnessFactor": 0.82
      },
      "alphaMode": "BLEND",
      "alphaCutoff": 0.02
    }
  ],
  "buffers": [
    {
      "byteLength": 6408,
      "uri": "data:application/octet-stream;base64,"
    }
  ],
  "bufferViews": [
    {
      "buffer": 0,
      "byteOffset": 0,
      "byteLength": 780,
      "target": 34962
    },
    {
      "buffer": 0,
      "byteOffset": 780,
      "byteLength": 780,
      "target": 34962
    },
    {
      "buffer": 0,
      "byteOffset": 1560,
      "byteLength": 576,
      "target": 34963
    },
    {
      "buffer": 0,
      "byteOffset": 2136,
      "byteLength": 780,
      "target": 34962
    },
    {
      "buffer": 0,
      "byteOffset": 2916,
      "byteLength": 780,
      "target": 34962
    },
    {
      "buffer": 0,
      "byteOffset": 3696,
      "byteLength": 576,
      "target": 34963
    },
    {
      "buffer": 0,
      "byteOffset": 4272,
      "byteLength": 780,
      "target": 34962
    },
    {
      "buffer": 0,
      "byteOffset": 5052,
      "byteLength": 780,
      "target": 34962
    },
    {
      "buffer": 0,
      "byteOffset": 5832,
      "byteLength": 576,
      "target": 34963
    }
  ],
  "accessors": [
    {
      "bufferView": 0,
      "componentType": 5126,
      "count": 65,
      "type": "VEC3",
      "min": [
        -0.58,
        0.02,
        -0.40599999999999997
      ],
      "max": [
        0.58,
        0.096,
        0.40599999999999997
      ]
    },
    {
      "bufferView": 1,
      "componentType": 5126,
      "count": 65,
      "type": "VEC3"
    },
    {
      "bufferView": 2,
      "componentType": 5123,
      "count": 288,
      "type": "SCALAR"
    },
    {
      "bufferView": 3,
      "componentType": 5126,
      "count": 65,
      "type": "VEC3",
      "min": [
        -0.44,
        0.04,
        -0.308
      ],
      "max": [
        0.44,
        0.10400000000000001,
        0.308
      ]
    },
    {
      "bufferView": 4,
      "componentType": 5126,
      "count": 65,
      "type": "VEC3"
    },
    {
      "bufferView": 5,
      "componentType": 5123,
      "count": 288,
      "type": "SCALAR"
    },
    {
      "bufferView": 6,
      "componentType": 5126,
      "count": 65,
      "type": "VEC3",
      "min": [
        -0.68,
        0.0,
        -0.48960000000000004
      ],
      "max": [
        0.68,
        0.08,
        0.48960000000000004
      ]
    },
    {
      "bufferView": 7,
      "componentType": 5126,
      "count": 65,
      "type": "VEC3"
    },
    {
      "bufferView": 8,
      "componentType": 5123,
      "count": 288,
      "type": "SCALAR"
    }
  ]
}