{
  "asset": {
    "version": "2.0",
    "generator": "A-Life true_25d alpha generator"
  },
  "scene": 0,
  "scenes": [
    {
      "nodes": [
        0
      ]
    }
  ],
  "nodes": [
    {
      "name": "terrain_hazard_pressure",
      "mesh": 0
    }
  ],
  "meshes": [
    {
      "name": "terrain_hazard_pressure-mesh",
      "primitives": [
        {
          "attributes": {
            "POSITION": 0,
            "NORMAL": 1
          },
          "indices": 2,
          "material": 0
        },
        {
          "attributes": {
            "POSITION": 3,
            "NORMAL": 4
          },
          "indices": 5,
          "material": 1
        },
        {
          "attributes": {
            "POSITION": 6,
            "NORMAL": 7
          },
          "indices": 8,
          "material": 2
        },
        {
          "attributes": {
            "POSITION": 9,
            "NORMAL": 10
          },
          "indices": 11,
          "material": 3
        },
        {
          "attributes": {
            "POSITION": 12,
            "NORMAL": 13
          },
          "indices": 14,
          "material": 4
        },
        {
          "attributes": {
            "POSITION": 15,
            "NORMAL": 16
          },
          "indices": 17,
          "material": 5
        },
        {
          "attributes": {
            "POSITION": 18,
            "NORMAL": 19
          },
          "indices": 20,
          "material": 6
        },
        {
          "attributes": {
            "POSITION": 21,
            "NORMAL": 22
          },
          "indices": 23,
          "material": 7
        }
      ]
    }
  ],
  "materials": [
    {
      "name": "terrain_hazard_pressure-organic-ground-0-toon",
      "doubleSided": true,
      "emissiveFactor": [
        0.10416000000000002,
        0.03348,
        0.026040000000000004
      ],
      "pbrMetallicRoughness": {
        "baseColorFactor": [
          0.5208,
          0.1674,
          0.1302,
          1.0
        ],
        "metallicFactor": 0.0,
        "roughnessFactor": 0.82
      }
    },
    {
      "name": "terrain_hazard_pressure-organic-ground-1-toon",
      "doubleSided": true,
      "emissiveFactor": [
        0.11984000000000002,
        0.03852,
        0.029960000000000004
      ],
      "pbrMetallicRoughness": {
        "baseColorFactor": [
          0.5992000000000001,
          0.1926,
          0.14980000000000002,
          1.0
        ],
        "metallicFactor": 0.0,
        "roughnessFactor": 0.82
      }
    },
    {
      "name": "terrain_hazard_pressure-organic-ground-2-toon",
      "doubleSided": true,
      "emissiveFactor": [
        0.09632000000000002,
        0.03096,
        0.024080000000000004
      ],
      "pbrMetallicRoughness": {
        "baseColorFactor": [
          0.48160000000000003,
          0.1548,
          0.12040000000000001,
          1.0
        ],
        "metallicFactor": 0.0,
        "roughnessFactor": 0.82
      }
    },
    {
      "name": "terrain_hazard_pressure-organic-ground-3-toon",
      "doubleSided": true,
      "emissiveFactor": [
        0.11200000000000002,
        0.036,
        0.028000000000000004
      ],
      "pbrMetallicRoughness": {
        "baseColorFactor": [
          0.56,
          0.18,
          0.14,
          1.0
        ],
        "metallicFactor": 0.0,
        "roughnessFactor": 0.82
      }
    },
    {
      "name": "terrain_hazard_pressure-organic-ground-4-toon",
      "doubleSided": true,
      "emissiveFactor": [
        0.12768000000000002,
        0.04104000000000001,
        0.031920000000000004
      ],
      "pbrMetallicRoughness": {
        "baseColorFactor": [
          0.6384000000000001,
          0.20520000000000002,
          0.15960000000000002,
          1.0
        ],
        "metallicFactor": 0.0,
        "roughnessFactor": 0.82
      }
    },
    {
      "name": "terrain_hazard_pressure-organic-ground-5-toon",
      "doubleSided": true,
      "emissiveFactor": [
        0.10416000000000002,
        0.03348,
        0.026040000000000004
      ],
      "pbrMetallicRoughness": {
        "baseColorFactor": [
          0.5208,
          0.1674,
          0.1302,
          1.0
        ],
        "metallicFactor": 0.0,
        "roughnessFactor": 0.82
      }
    },
    {
      "name": "terrain_hazard_pressure-organic-ground-6-toon",
      "doubleSided": true,
      "emissiveFactor": [
        0.11984000000000002,
        0.03852,
        0.029960000000000004
      ],
      "pbrMetallicRoughness": {
        "baseColorFactor": [
          0.5992000000000001,
          0.1926,
          0.14980000000000002,
          1.0
        ],
        "metallicFactor": 0.0,
        "roughnessFactor": 0.82
      }
    },
    {
      "name": "terrain_hazard_pressure-biome-detail-toon",
      "doubleSided": true,
      "emissiveFactor": [
        0.2,
        0.044000000000000004,
        0.04000000000000001
      ],
      "pbrMetallicRoughness": {
        "baseColorFactor": [
          1.0,
          0.22,
          0.2,
          1.0
        ],
        "metallicFactor": 0.0,
        "roughnessFactor": 0.82
      }
    }
  ],
  "buffers": [
    {
      "byteLength": 5412,
      "uri": "data:application/octet-stream;base64,"
    }
  ],
  "bufferViews": [
    {
      "buffer": 0,
      "byteOffset": 0,
      "byteLength": 252,
      "target": 34962
    },
    {
      "buffer": 0,
      "byteOffset": 252,
      "byteLength": 252,
      "target": 34962
    },
    {
      "buffer": 0,
      "byteOffset": 504,
      "byteLength": 180,
      "target": 34963
    },
    {
      "buffer": 0,
      "byteOffset": 684,
      "byteLength": 252,
      "target": 34962
    },
    {
      "buffer": 0,
      "byteOffset": 936,
      "byteLength": 252,
      "target": 34962
    },
    {
      "buffer": 0,
      "byteOffset": 1188,
      "byteLength": 180,
      "target": 34963
    },
    {
      "buffer": 0,
      "byteOffset": 1368,
      "byteLength": 252,
      "target": 34962
    },
    {
      "buffer": 0,
      "byteOffset": 1620,
      "byteLength": 252,
      "target": 34962
    },
    {
      "buffer": 0,
      "byteOffset": 1872,
      "byteLength": 180,
      "target": 34963
    },
    {
      "buffer": 0,
      "byteOffset": 2052,
      "byteLength": 252,
      "target": 34962
    },
    {
      "buffer": 0,
      "byteOffset": 2304,
      "byteLength": 252,
      "target": 34962
    },
    {
      "buffer": 0,
      "byteOffset": 2556,
      "byteLength": 180,
      "target": 34963
    },
    {
      "buffer": 0,
      "byteOffset": 2736,
      "byteLength": 252,
      "target": 34962
    },
    {
      "buffer": 0,
      "byteOffset": 2988,
      "byteLength": 252,
      "target": 34962
    },
    {
      "buffer": 0,
      "byteOffset": 3240,
      "byteLength": 180,
      "target": 34963
    },
    {
      "buffer": 0,
      "byteOffset": 3420,
      "byteLength": 252,
      "target": 34962
    },
    {
      "buffer": 0,
      "byteOffset": 3672,
      "byteLength": 252,
      "target": 34962
    },
    {
      "buffer": 0,
      "byteOffset": 3924,
      "byteLength": 180,
      "target": 34963
    },
    {
      "buffer": 0,
      "byteOffset": 4104,
      "byteLength": 252,
      "target": 34962
    },
    {
      "buffer": 0,
      "byteOffset": 4356,
      "byteLength": 252,
      "target": 34962
    },
    {
      "buffer": 0,
      "byteOffset": 4608,
      "byteLength": 180,
      "target": 34963
    },
    {
      "buffer": 0,
      "byteOffset": 4788,
      "byteLength": 240,
      "target": 34962
    },
    {
      "buffer": 0,
      "byteOffset": 5028,
      "byteLength": 240,
      "target": 34962
    },
    {
      "buffer": 0,
      "byteOffset": 5268,
      "byteLength": 144,
      "target": 34963
    }
  ],
  "accessors": [
    {
      "bufferView": 0,
      "componentType": 5126,
      "count": 21,
      "type": "VEC3",
      "min": [
        -0.6752918970451429,
        0.0,
        -0.41558580945282536
      ],
      "max": [
        0.5464302361388739,
        0.07293235471758755,
        0.5511306285928356
      ]
    },
    {
      "bufferView": 1,
      "componentType": 5126,
      "count": 21,
      "type": "VEC3"
    },
    {
      "bufferView": 2,
      "componentType": 5123,
      "count": 90,
      "type": "SCALAR"
    },
    {
      "bufferView": 3,
      "componentType": 5126,
      "count": 21,
      "type": "VEC3",
      "min": [
        -1.5322279846255644,
        0.0,
        -0.017001680311667544
      ],
      "max": [
        -0.5374377847338139,
        0.08442656407141941,
        0.7438055107869512
      ]
    },
    {
      "bufferView": 4,
      "componentType": 5126,
      "count": 21,
      "type": "VEC3"
    },
    {
      "bufferView": 5,
      "componentType": 5123,
      "count": 90,
      "type": "SCALAR"
    },
    {
      "bufferView": 6,
      "componentType": 5126,
      "count": 21,
      "type": "VEC3",
      "min": [
        0.3496273898685075,
        0.0,
        -0.15369344299130297
      ],
      "max": [
        1.4174264441906086,
        0.0969984134819308,
        0.6437986574157545
      ]
    },
    {
      "bufferView": 7,
      "componentType": 5126,
      "count": 21,
      "type": "VEC3"
    },
    {
      "bufferView": 8,
      "componentType": 5123,
      "count": 90,
      "type": "SCALAR"
    },
    {
      "bufferView": 9,
      "componentType": 5126,
      "count": 21,
      "type": "VEC3",
      "min": [
        -1.294805310214658,
        0.0,
        -1.0446818277167678
      ],
      "max": [
        -0.1772753987758393,
        0.07278947315508946,
        -0.19085791543342512
      ]
    },
    {
      "bufferView": 10,
      "componentType": 5126,
      "count": 21,
      "type": "VEC3"
    },
    {
      "bufferView": 11,
      "componentType": 5123,
      "count": 90,
      "type": "SCALAR"
    },
    {
      "bufferView": 12,
      "componentType": 5126,
      "count": 21,
      "type": "VEC3",
      "min": [
        0.2778437443354502,
        0.0,
        -0.9749357918290137
      ],
      "max": [
        1.315910482026248,
        0.08437767946833538,
        -0.17510723335736322
      ]
    },
    {
      "bufferView": 13,
      "componentType": 5126,
      "count": 21,
      "type": "VEC3"
    },
    {
      "bufferView": 14,
      "componentType": 5123,
      "count": 90,
      "type": "SCALAR"
    },
    {
      "bufferView": 15,
      "componentType": 5126,
      "count": 21,
      "type": "VEC3",
      "min": [
        -1.7537373805715322,
        0.0,
        -0.2320902959890552
      ],
      "max": [
        -1.111273910701997,
        0.09697463570341186,
        0.31025218068773774
      ]
    },
    {
      "bufferView": 16,
      "componentType": 5126,
      "count": 21,
      "type": "VEC3"
    },
    {
      "bufferView": 17,
      "componentType": 5123,
      "count": 90,
      "type": "SCALAR"
    },
    {
      "bufferView": 18,
      "componentType": 5126,
      "count": 21,
      "type": "VEC3",
      "min": [
        1.0837897933984617,
        0.0,
        -0.3747264120282177
      ],
      "max": [
        1.7838445695779583,
        0.07182243025099147,
        0.19242875536482223
      ]
    },
    {
      "bufferView": 19,
      "componentType": 5126,
      "count": 21,
      "type": "VEC3"
    },
    {
      "bufferView": 20,
      "componentType": 5123,
      "count": 90,
      "type": "SCALAR"
    },
    {
      "bufferView": 21,
      "componentType": 5126,
      "count": 20,
      "type": "VEC3",
      "min": [
        -1.06,
        0.0,
        -0.786
      ],
      "max": [
        0.88,
        0.34,
        0.8099999999999999
      ]
    },
    {
      "bufferView": 22,
      "componentType": 5126,
      "count": 20,
      "type": "VEC3"
    },
    {
      "bufferView": 23,
      "componentType": 5123,
      "count": 72,
      "type": "SCALAR"
    }
  ]
}