{
  "asset": {
    "version": "2.0",
    "generator": "A-Life true_25d alpha generator"
  },
  "scene": 0,
  "scenes": [
    {
      "nodes": [
        0
      ]
    }
  ],
  "nodes": [
    {
      "name": "terrain_resource_grove",
      "mesh": 0
    }
  ],
  "meshes": [
    {
      "name": "terrain_resource_grove-mesh",
      "primitives": [
        {
          "attributes": {
            "POSITION": 0,
            "NORMAL": 1
          },
          "indices": 2,
          "material": 0
        },
        {
          "attributes": {
            "POSITION": 3,
            "NORMAL": 4
          },
          "indices": 5,
          "material": 1
        },
        {
          "attributes": {
            "POSITION": 6,
            "NORMAL": 7
          },
          "indices": 8,
          "material": 2
        },
        {
          "attributes": {
            "POSITION": 9,
            "NORMAL": 10
          },
          "indices": 11,
          "material": 3
        },
        {
          "attributes": {
            "POSITION": 12,
            "NORMAL": 13
          },
          "indices": 14,
          "material": 4
        },
        {
          "attributes": {
            "POSITION": 15,
            "NORMAL": 16
          },
          "indices": 17,
          "material": 5
        },
        {
          "attributes": {
            "POSITION": 18,
            "NORMAL": 19
          },
          "indices": 20,
          "material": 6
        },
        {
          "attributes": {
            "POSITION": 21,
            "NORMAL": 22
          },
          "indices": 23,
          "material": 7
        }
      ]
    }
  ],
  "materials": [
    {
      "name": "terrain_resource_grove-organic-ground-0-toon",
      "doubleSided": true,
      "emissiveFactor": [
        0.03852,
        0.11128,
        0.042800000000000005
      ],
      "pbrMetallicRoughness": {
        "baseColorFactor": [
          0.1926,
          0.5564,
          0.21400000000000002,
          1.0
        ],
        "metallicFactor": 0.0,
        "roughnessFactor": 0.82
      }
    },
    {
      "name": "terrain_resource_grove-organic-ground-1-toon",
      "doubleSided": true,
      "emissiveFactor": [
        0.03096,
        0.08944,
        0.03440000000000001
      ],
      "pbrMetallicRoughness": {
        "baseColorFactor": [
          0.1548,
          0.4472,
          0.17200000000000001,
          1.0
        ],
        "metallicFactor": 0.0,
        "roughnessFactor": 0.82
      }
    },
    {
      "name": "terrain_resource_grove-organic-ground-2-toon",
      "doubleSided": true,
      "emissiveFactor": [
        0.036,
        0.10400000000000001,
        0.04000000000000001
      ],
      "pbrMetallicRoughness": {
        "baseColorFactor": [
          0.18,
          0.52,
          0.2,
          1.0
        ],
        "metallicFactor": 0.0,
        "roughnessFactor": 0.82
      }
    },
    {
      "name": "terrain_resource_grove-organic-ground-3-toon",
      "doubleSided": true,
      "emissiveFactor": [
        0.04104000000000001,
        0.11856000000000003,
        0.04560000000000001
      ],
      "pbrMetallicRoughness": {
        "baseColorFactor": [
          0.20520000000000002,
          0.5928000000000001,
          0.22800000000000004,
          1.0
        ],
        "metallicFactor": 0.0,
        "roughnessFactor": 0.82
      }
    },
    {
      "name": "terrain_resource_grove-organic-ground-4-toon",
      "doubleSided": true,
      "emissiveFactor": [
        0.03348,
        0.09672,
        0.037200000000000004
      ],
      "pbrMetallicRoughness": {
        "baseColorFactor": [
          0.1674,
          0.4836,
          0.186,
          1.0
        ],
        "metallicFactor": 0.0,
        "roughnessFactor": 0.82
      }
    },
    {
      "name": "terrain_resource_grove-organic-ground-5-toon",
      "doubleSided": true,
      "emissiveFactor": [
        0.03852,
        0.11128,
        0.042800000000000005
      ],
      "pbrMetallicRoughness": {
        "baseColorFactor": [
          0.1926,
          0.5564,
          0.21400000000000002,
          1.0
        ],
        "metallicFactor": 0.0,
        "roughnessFactor": 0.82
      }
    },
    {
      "name": "terrain_resource_grove-organic-ground-6-toon",
      "doubleSided": true,
      "emissiveFactor": [
        0.03096,
        0.08944,
        0.03440000000000001
      ],
      "pbrMetallicRoughness": {
        "baseColorFactor": [
          0.1548,
          0.4472,
          0.17200000000000001,
          1.0
        ],
        "metallicFactor": 0.0,
        "roughnessFactor": 0.82
      }
    },
    {
      "name": "terrain_resource_grove-biome-detail-toon",
      "doubleSided": true,
      "emissiveFactor": [
        0.06,
        0.192,
        0.08000000000000002
      ],
      "pbrMetallicRoughness": {
        "baseColorFactor": [
          0.3,
          0.96,
          0.4,
          1.0
        ],
        "metallicFactor": 0.0,
        "roughnessFactor": 0.82
      }
    }
  ],
  "buffers": [
    {
      "byteLength": 7206,
      "uri": "data:application/octet-stream;base64,"
    }
  ],
  "bufferViews": [
    {
      "buffer": 0,
      "byteOffset": 0,
      "byteLength": 252,
      "target": 34962
    },
    {
      "buffer": 0,
      "byteOffset": 252,
      "byteLength": 252,
      "target": 34962
    },
    {
      "buffer": 0,
      "byteOffset": 504,
      "byteLength": 180,
      "target": 34963
    },
    {
      "buffer": 0,
      "byteOffset": 684,
      "byteLength": 252,
      "target": 34962
    },
    {
      "buffer": 0,
      "byteOffset": 936,
      "byteLength": 252,
      "target": 34962
    },
    {
      "buffer": 0,
      "byteOffset": 1188,
      "byteLength": 180,
      "target": 34963
    },
    {
      "buffer": 0,
      "byteOffset": 1368,
      "byteLength": 252,
      "target": 34962
    },
    {
      "buffer": 0,
      "byteOffset": 1620,
      "byteLength": 252,
      "target": 34962
    },
    {
      "buffer": 0,
      "byteOffset": 1872,
      "byteLength": 180,
      "target": 34963
    },
    {
      "buffer": 0,
      "byteOffset": 2052,
      "byteLength": 252,
      "target": 34962
    },
    {
      "buffer": 0,
      "byteOffset": 2304,
      "byteLength": 252,
      "target": 34962
    },
    {
      "buffer": 0,
      "byteOffset": 2556,
      "byteLength": 180,
      "target": 34963
    },
    {
      "buffer": 0,
      "byteOffset": 2736,
      "byteLength": 252,
      "target": 34962
    },
    {
      "buffer": 0,
      "byteOffset": 2988,
      "byteLength": 252,
      "target": 34962
    },
    {
      "buffer": 0,
      "byteOffset": 3240,
      "byteLength": 180,
      "target": 34963
    },
    {
      "buffer": 0,
      "byteOffset": 3420,
      "byteLength": 252,
      "target": 34962
    },
    {
      "buffer": 0,
      "byteOffset": 3672,
      "byteLength": 252,
      "target": 34962
    },
    {
      "buffer": 0,
      "byteOffset": 3924,
      "byteLength": 180,
      "target": 34963
    },
    {
      "buffer": 0,
      "byteOffset": 4104,
      "byteLength": 252,
      "target": 34962
    },
    {
      "buffer": 0,
      "byteOffset": 4356,
      "byteLength": 252,
      "target": 34962
    },
    {
      "buffer": 0,
      "byteOffset": 4608,
      "byteLength": 180,
      "target": 34963
    },
    {
      "buffer": 0,
      "byteOffset": 4788,
      "byteLength": 1116,
      "target": 34962
    },
    {
      "buffer": 0,
      "byteOffset": 5904,
      "byteLength": 1116,
      "target": 34962
    },
    {
      "buffer": 0,
      "byteOffset": 7020,
      "byteLength": 186,
      "target": 34963
    }
  ],
  "accessors": [
    {
      "bufferView": 0,
      "componentType": 5126,
      "count": 21,
      "type": "VEC3",
      "min": [
        -0.4964744623306524,
        0.0,
        -0.6030952345782697
      ],
      "max": [
        0.7134381994945133,
        0.07291631988840806,
        0.43041232316253153
      ]
    },
    {
      "bufferView": 1,
      "componentType": 5126,
      "count": 21,
      "type": "VEC3"
    },
    {
      "bufferView": 2,
      "componentType": 5123,
      "count": 90,
      "type": "SCALAR"
    },
    {
      "bufferView": 3,
      "componentType": 5126,
      "count": 21,
      "type": "VEC3",
      "min": [
        -1.29422965685127,
        0.0,
        -0.07197612906144168
      ],
      "max": [
        -0.3349723894183815,
        0.0849560335403405,
        0.7389304307883984
      ]
    },
    {
      "bufferView": 4,
      "componentType": 5126,
      "count": 21,
      "type": "VEC3"
    },
    {
      "bufferView": 5,
      "componentType": 5123,
      "count": 90,
      "type": "SCALAR"
    },
    {
      "bufferView": 6,
      "componentType": 5126,
      "count": 21,
      "type": "VEC3",
      "min": [
        0.4769685318094641,
        0.0,
        -0.04198582202615947
      ],
      "max": [
        1.4845214977253431,
        0.09665373845941275,
        0.8025943350911624
      ]
    },
    {
      "bufferView": 7,
      "componentType": 5126,
      "count": 21,
      "type": "VEC3"
    },
    {
      "bufferView": 8,
      "componentType": 5123,
      "count": 90,
      "type": "SCALAR"
    },
    {
      "bufferView": 9,
      "componentType": 5126,
      "count": 21,
      "type": "VEC3",
      "min": [
        -1.3444531811764193,
        0.0,
        -0.9889413457606862
      ],
      "max": [
        -0.3044233773477628,
        0.07299185095079005,
        -0.09323296099363587
      ]
    },
    {
      "bufferView": 10,
      "componentType": 5126,
      "count": 21,
      "type": "VEC3"
    },
    {
      "bufferView": 11,
      "componentType": 5123,
      "count": 90,
      "type": "SCALAR"
    },
    {
      "bufferView": 12,
      "componentType": 5126,
      "count": 21,
      "type": "VEC3",
      "min": [
        0.1788057099723388,
        0.0,
        -1.1145972013310703
      ],
      "max": [
        1.140994953614883,
        0.08426516499315545,
        -0.28561301943115047
      ]
    },
    {
      "bufferView": 13,
      "componentType": 5126,
      "count": 21,
      "type": "VEC3"
    },
    {
      "bufferView": 14,
      "componentType": 5123,
      "count": 90,
      "type": "SCALAR"
    },
    {
      "bufferView": 15,
      "componentType": 5126,
      "count": 21,
      "type": "VEC3",
      "min": [
        -1.7395305406698505,
        0.0,
        -0.4009583624021268
      ],
      "max": [
        -1.1402971699287554,
        0.09684789973385453,
        0.1521272255198036
      ]
    },
    {
      "bufferView": 16,
      "componentType": 5126,
      "count": 21,
      "type": "VEC3"
    },
    {
      "bufferView": 17,
      "componentType": 5123,
      "count": 90,
      "type": "SCALAR"
    },
    {
      "bufferView": 18,
      "componentType": 5126,
      "count": 21,
      "type": "VEC3",
      "min": [
        1.2072248155436964,
        0.0,
        -0.36255753315739875
      ],
      "max": [
        1.8704661895209123,
        0.07268712179255452,
        0.20331617570056187
      ]
    },
    {
      "bufferView": 19,
      "componentType": 5126,
      "count": 21,
      "type": "VEC3"
    },
    {
      "bufferView": 20,
      "componentType": 5123,
      "count": 90,
      "type": "SCALAR"
    },
    {
      "bufferView": 21,
      "componentType": 5126,
      "count": 93,
      "type": "VEC3",
      "min": [
        -1.2115349275284621,
        0.1,
        -0.6943886669217499
      ],
      "max": [
        2.6259366901250902,
        0.3176,
        0.6758067482553745
      ]
    },
    {
      "bufferView": 22,
      "componentType": 5126,
      "count": 93,
      "type": "VEC3"
    },
    {
      "bufferView": 23,
      "componentType": 5123,
      "count": 93,
      "type": "SCALAR"
    }
  ]
}