{
  "asset": {
    "version": "2.0",
    "generator": "A-Life true_25d alpha generator"
  },
  "scene": 0,
  "scenes": [
    {
      "nodes": [
        0
      ]
    }
  ],
  "nodes": [
    {
      "name": "terrain_grass_island",
      "mesh": 0
    }
  ],
  "meshes": [
    {
      "name": "terrain_grass_island-mesh",
      "primitives": [
        {
          "attributes": {
            "POSITION": 0,
            "NORMAL": 1
          },
          "indices": 2,
          "material": 0
        },
        {
          "attributes": {
            "POSITION": 3,
            "NORMAL": 4
          },
          "indices": 5,
          "material": 1
        },
        {
          "attributes": {
            "POSITION": 6,
            "NORMAL": 7
          },
          "indices": 8,
          "material": 2
        },
        {
          "attributes": {
            "POSITION": 9,
            "NORMAL": 10
          },
          "indices": 11,
          "material": 3
        },
        {
          "attributes": {
            "POSITION": 12,
            "NORMAL": 13
          },
          "indices": 14,
          "material": 4
        },
        {
          "attributes": {
            "POSITION": 15,
            "NORMAL": 16
          },
          "indices": 17,
          "material": 5
        },
        {
          "attributes": {
            "POSITION": 18,
            "NORMAL": 19
          },
          "indices": 20,
          "material": 6
        },
        {
          "attributes": {
            "POSITION": 21,
            "NORMAL": 22
          },
          "indices": 23,
          "material": 7
        }
      ]
    }
  ],
  "materials": [
    {
      "name": "terrain_grass_island-organic-ground-0-toon",
      "doubleSided": true,
      "emissiveFactor": [
        0.04464,
        0.10601999999999999,
        0.04092
      ],
      "pbrMetallicRoughness": {
        "baseColorFactor": [
          0.22319999999999998,
          0.5300999999999999,
          0.20459999999999998,
          1.0
        ],
        "metallicFactor": 0.0,
        "roughnessFactor": 0.82
      }
    },
    {
      "name": "terrain_grass_island-organic-ground-1-toon",
      "doubleSided": true,
      "emissiveFactor": [
        0.05136000000000001,
        0.12198,
        0.04708000000000001
      ],
      "pbrMetallicRoughness": {
        "baseColorFactor": [
          0.25680000000000003,
          0.6099,
          0.23540000000000003,
          1.0
        ],
        "metallicFactor": 0.0,
        "roughnessFactor": 0.82
      }
    },
    {
      "name": "terrain_grass_island-organic-ground-2-toon",
      "doubleSided": true,
      "emissiveFactor": [
        0.041280000000000004,
        0.09804,
        0.037840000000000006
      ],
      "pbrMetallicRoughness": {
        "baseColorFactor": [
          0.2064,
          0.49019999999999997,
          0.1892,
          1.0
        ],
        "metallicFactor": 0.0,
        "roughnessFactor": 0.82
      }
    },
    {
      "name": "terrain_grass_island-organic-ground-3-toon",
      "doubleSided": true,
      "emissiveFactor": [
        0.048,
        0.11399999999999999,
        0.044000000000000004
      ],
      "pbrMetallicRoughness": {
        "baseColorFactor": [
          0.24,
          0.57,
          0.22,
          1.0
        ],
        "metallicFactor": 0.0,
        "roughnessFactor": 0.82
      }
    },
    {
      "name": "terrain_grass_island-organic-ground-4-toon",
      "doubleSided": true,
      "emissiveFactor": [
        0.054720000000000005,
        0.12996000000000002,
        0.05016000000000001
      ],
      "pbrMetallicRoughness": {
        "baseColorFactor": [
          0.2736,
          0.6498,
          0.2508,
          1.0
        ],
        "metallicFactor": 0.0,
        "roughnessFactor": 0.82
      }
    },
    {
      "name": "terrain_grass_island-organic-ground-5-toon",
      "doubleSided": true,
      "emissiveFactor": [
        0.04464,
        0.10601999999999999,
        0.04092
      ],
      "pbrMetallicRoughness": {
        "baseColorFactor": [
          0.22319999999999998,
          0.5300999999999999,
          0.20459999999999998,
          1.0
        ],
        "metallicFactor": 0.0,
        "roughnessFactor": 0.82
      }
    },
    {
      "name": "terrain_grass_island-organic-ground-6-toon",
      "doubleSided": true,
      "emissiveFactor": [
        0.05136000000000001,
        0.12198,
        0.04708000000000001
      ],
      "pbrMetallicRoughness": {
        "baseColorFactor": [
          0.25680000000000003,
          0.6099,
          0.23540000000000003,
          1.0
        ],
        "metallicFactor": 0.0,
        "roughnessFactor": 0.82
      }
    },
    {
      "name": "terrain_grass_island-biome-detail-toon",
      "doubleSided": true,
      "emissiveFactor": [
        0.126,
        0.17200000000000001,
        0.068
      ],
      "pbrMetallicRoughness": {
        "baseColorFactor": [
          0.63,
          0.86,
          0.34,
          1.0
        ],
        "metallicFactor": 0.0,
        "roughnessFactor": 0.82
      }
    }
  ],
  "buffers": [
    {
      "byteLength": 6270,
      "uri": "data:application/octet-stream;base64,"
    }
  ],
  "bufferViews": [
    {
      "buffer": 0,
      "byteOffset": 0,
      "byteLength": 252,
      "target": 34962
    },
    {
      "buffer": 0,
      "byteOffset": 252,
      "byteLength": 252,
      "target": 34962
    },
    {
      "buffer": 0,
      "byteOffset": 504,
      "byteLength": 180,
      "target": 34963
    },
    {
      "buffer": 0,
      "byteOffset": 684,
      "byteLength": 252,
      "target": 34962
    },
    {
      "buffer": 0,
      "byteOffset": 936,
      "byteLength": 252,
      "target": 34962
    },
    {
      "buffer": 0,
      "byteOffset": 1188,
      "byteLength": 180,
      "target": 34963
    },
    {
      "buffer": 0,
      "byteOffset": 1368,
      "byteLength": 252,
      "target": 34962
    },
    {
      "buffer": 0,
      "byteOffset": 1620,
      "byteLength": 252,
      "target": 34962
    },
    {
      "buffer": 0,
      "byteOffset": 1872,
      "byteLength": 180,
      "target": 34963
    },
    {
      "buffer": 0,
      "byteOffset": 2052,
      "byteLength": 252,
      "target": 34962
    },
    {
      "buffer": 0,
      "byteOffset": 2304,
      "byteLength": 252,
      "target": 34962
    },
    {
      "buffer": 0,
      "byteOffset": 2556,
      "byteLength": 180,
      "target": 34963
    },
    {
      "buffer": 0,
      "byteOffset": 2736,
      "byteLength": 252,
      "target": 34962
    },
    {
      "buffer": 0,
      "byteOffset": 2988,
      "byteLength": 252,
      "target": 34962
    },
    {
      "buffer": 0,
      "byteOffset": 3240,
      "byteLength": 180,
      "target": 34963
    },
    {
      "buffer": 0,
      "byteOffset": 3420,
      "byteLength": 252,
      "target": 34962
    },
    {
      "buffer": 0,
      "byteOffset": 3672,
      "byteLength": 252,
      "target": 34962
    },
    {
      "buffer": 0,
      "byteOffset": 3924,
      "byteLength": 180,
      "target": 34963
    },
    {
      "buffer": 0,
      "byteOffset": 4104,
      "byteLength": 252,
      "target": 34962
    },
    {
      "buffer": 0,
      "byteOffset": 4356,
      "byteLength": 252,
      "target": 34962
    },
    {
      "buffer": 0,
      "byteOffset": 4608,
      "byteLength": 180,
      "target": 34963
    },
    {
      "buffer": 0,
      "byteOffset": 4788,
      "byteLength": 684,
      "target": 34962
    },
    {
      "buffer": 0,
      "byteOffset": 5472,
      "byteLength": 684,
      "target": 34962
    },
    {
      "buffer": 0,
      "byteOffset": 6156,
      "byteLength": 114,
      "target": 34963
    }
  ],
  "accessors": [
    {
      "bufferView": 0,
      "componentType": 5126,
      "count": 21,
      "type": "VEC3",
      "min": [
        -0.6341585338111613,
        0.0,
        -0.49730893560551126
      ],
      "max": [
        0.5448277019888057,
        0.07294293629701838,
        0.5001154188865763
      ]
    },
    {
      "bufferView": 1,
      "componentType": 5126,
      "count": 21,
      "type": "VEC3"
    },
    {
      "bufferView": 2,
      "componentType": 5123,
      "count": 90,
      "type": "SCALAR"
    },
    {
      "bufferView": 3,
      "componentType": 5126,
      "count": 21,
      "type": "VEC3",
      "min": [
        -1.5074282121867215,
        0.0,
        0.047798712586432035
      ],
      "max": [
        -0.5517740237224648,
        0.08449613502510957,
        0.842470754855321
      ]
    },
    {
      "bufferView": 4,
      "componentType": 5126,
      "count": 21,
      "type": "VEC3"
    },
    {
      "bufferView": 5,
      "componentType": 5123,
      "count": 90,
      "type": "SCALAR"
    },
    {
      "bufferView": 6,
      "componentType": 5126,
      "count": 21,
      "type": "VEC3",
      "min": [
        0.3659738080483136,
        0.0,
        -0.03826680165903412
      ],
      "max": [
        1.3927604499540625,
        0.09671032050313509,
        0.8029952337465925
      ]
    },
    {
      "bufferView": 7,
      "componentType": 5126,
      "count": 21,
      "type": "VEC3"
    },
    {
      "bufferView": 8,
      "componentType": 5123,
      "count": 90,
      "type": "SCALAR"
    },
    {
      "bufferView": 9,
      "componentType": 5126,
      "count": 21,
      "type": "VEC3",
      "min": [
        -1.2970557766553013,
        0.0,
        -1.0714886087105489
      ],
      "max": [
        -0.2158116776456258,
        0.07283093240250767,
        -0.1644781757890751
      ]
    },
    {
      "bufferView": 10,
      "componentType": 5126,
      "count": 21,
      "type": "VEC3"
    },
    {
      "bufferView": 11,
      "componentType": 5123,
      "count": 90,
      "type": "SCALAR"
    },
    {
      "bufferView": 12,
      "componentType": 5126,
      "count": 21,
      "type": "VEC3",
      "min": [
        0.2528132149227863,
        0.0,
        -1.1332460336151238
      ],
      "max": [
        1.2676663438390108,
        0.0843007490410381,
        -0.28037024075325356
      ]
    },
    {
      "bufferView": 13,
      "componentType": 5126,
      "count": 21,
      "type": "VEC3"
    },
    {
      "bufferView": 14,
      "componentType": 5123,
      "count": 90,
      "type": "SCALAR"
    },
    {
      "bufferView": 15,
      "componentType": 5126,
      "count": 21,
      "type": "VEC3",
      "min": [
        -1.7832461981049241,
        0.0,
        -0.3131738785439442
      ],
      "max": [
        -1.146788910054014,
        0.09688463804824712,
        0.2641637750029798
      ]
    },
    {
      "bufferView": 16,
      "componentType": 5126,
      "count": 21,
      "type": "VEC3"
    },
    {
      "bufferView": 17,
      "componentType": 5123,
      "count": 90,
      "type": "SCALAR"
    },
    {
      "bufferView": 18,
      "componentType": 5126,
      "count": 21,
      "type": "VEC3",
      "min": [
        1.0491092928987507,
        0.0,
        -0.2991120357446642
      ],
      "max": [
        1.7526660497046778,
        0.07262843757587051,
        0.3010244977992945
      ]
    },
    {
      "bufferView": 19,
      "componentType": 5126,
      "count": 21,
      "type": "VEC3"
    },
    {
      "bufferView": 20,
      "componentType": 5123,
      "count": 90,
      "type": "SCALAR"
    },
    {
      "bufferView": 21,
      "componentType": 5126,
      "count": 57,
      "type": "VEC3",
      "min": [
        -1.2238365117185046,
        0.1,
        -0.7005545910884843
      ],
      "max": [
        1.1970022472650887,
        0.3176,
        0.6824029038481911
      ]
    },
    {
      "bufferView": 22,
      "componentType": 5126,
      "count": 57,
      "type": "VEC3"
    },
    {
      "bufferView": 23,
      "componentType": 5123,
      "count": 57,
      "type": "SCALAR"
    }
  ]
}