{
  "asset": {
    "version": "2.0",
    "generator": "A-Life true_25d alpha generator"
  },
  "scene": 0,
  "scenes": [
    {
      "nodes": [
        0
      ]
    }
  ],
  "nodes": [
    {
      "name": "terrain_water_cell",
      "mesh": 0
    }
  ],
  "meshes": [
    {
      "name": "terrain_water_cell-mesh",
      "primitives": [
        {
          "attributes": {
            "POSITION": 0,
            "NORMAL": 1
          },
          "indices": 2,
          "material": 0
        },
        {
          "attributes": {
            "POSITION": 3,
            "NORMAL": 4
          },
          "indices": 5,
          "material": 1
        },
        {
          "attributes": {
            "POSITION": 6,
            "NORMAL": 7
          },
          "indices": 8,
          "material": 2
        },
        {
          "attributes": {
            "POSITION": 9,
            "NORMAL": 10
          },
          "indices": 11,
          "material": 3
        },
        {
          "attributes": {
            "POSITION": 12,
            "NORMAL": 13
          },
          "indices": 14,
          "material": 4
        },
        {
          "attributes": {
            "POSITION": 15,
            "NORMAL": 16
          },
          "indices": 17,
          "material": 5
        },
        {
          "attributes": {
            "POSITION": 18,
            "NORMAL": 19
          },
          "indices": 20,
          "material": 6
        },
        {
          "attributes": {
            "POSITION": 21,
            "NORMAL": 22
          },
          "indices": 23,
          "material": 7
        }
      ]
    }
  ],
  "materials": [
    {
      "name": "terrain_water_cell-organic-ground-0-toon",
      "doubleSided": true,
      "emissiveFactor": [
        0.021400000000000002,
        0.08988000000000002,
        0.11984000000000002
      ],
      "pbrMetallicRoughness": {
        "baseColorFactor": [
          0.10700000000000001,
          0.4494,
          0.5992000000000001,
          1.0
        ],
        "metallicFactor": 0.0,
        "roughnessFactor": 0.82
      }
    },
    {
      "name": "terrain_water_cell-organic-ground-1-toon",
      "doubleSided": true,
      "emissiveFactor": [
        0.017200000000000003,
        0.07224,
        0.09632000000000002
      ],
      "pbrMetallicRoughness": {
        "baseColorFactor": [
          0.08600000000000001,
          0.36119999999999997,
          0.48160000000000003,
          1.0
        ],
        "metallicFactor": 0.0,
        "roughnessFactor": 0.82
      }
    },
    {
      "name": "terrain_water_cell-organic-ground-2-toon",
      "doubleSided": true,
      "emissiveFactor": [
        0.020000000000000004,
        0.084,
        0.11200000000000002
      ],
      "pbrMetallicRoughness": {
        "baseColorFactor": [
          0.1,
          0.42,
          0.56,
          1.0
        ],
        "metallicFactor": 0.0,
        "roughnessFactor": 0.82
      }
    },
    {
      "name": "terrain_water_cell-organic-ground-3-toon",
      "doubleSided": true,
      "emissiveFactor": [
        0.022800000000000004,
        0.09576000000000001,
        0.12768000000000002
      ],
      "pbrMetallicRoughness": {
        "baseColorFactor": [
          0.11400000000000002,
          0.47880000000000006,
          0.6384000000000001,
          1.0
        ],
        "metallicFactor": 0.0,
        "roughnessFactor": 0.82
      }
    },
    {
      "name": "terrain_water_cell-organic-ground-4-toon",
      "doubleSided": true,
      "emissiveFactor": [
        0.018600000000000002,
        0.07812,
        0.10416000000000002
      ],
      "pbrMetallicRoughness": {
        "baseColorFactor": [
          0.093,
          0.39059999999999995,
          0.5208,
          1.0
        ],
        "metallicFactor": 0.0,
        "roughnessFactor": 0.82
      }
    },
    {
      "name": "terrain_water_cell-organic-ground-5-toon",
      "doubleSided": true,
      "emissiveFactor": [
        0.021400000000000002,
        0.08988000000000002,
        0.11984000000000002
      ],
      "pbrMetallicRoughness": {
        "baseColorFactor": [
          0.10700000000000001,
          0.4494,
          0.5992000000000001,
          1.0
        ],
        "metallicFactor": 0.0,
        "roughnessFactor": 0.82
      }
    },
    {
      "name": "terrain_water_cell-organic-ground-6-toon",
      "doubleSided": true,
      "emissiveFactor": [
        0.017200000000000003,
        0.07224,
        0.09632000000000002
      ],
      "pbrMetallicRoughness": {
        "baseColorFactor": [
          0.08600000000000001,
          0.36119999999999997,
          0.48160000000000003,
          1.0
        ],
        "metallicFactor": 0.0,
        "roughnessFactor": 0.82
      }
    },
    {
      "name": "terrain_water_cell-biome-detail-toon",
      "doubleSided": true,
      "emissiveFactor": [
        0.072,
        0.168,
        0.2
      ],
      "pbrMetallicRoughness": {
        "baseColorFactor": [
          0.36,
          0.84,
          1.0,
          1.0
        ],
        "metallicFactor": 0.0,
        "roughnessFactor": 0.82
      }
    }
  ],
  "buffers": [
    {
      "byteLength": 6000,
      "uri": "data:application/octet-stream;base64,"
    }
  ],
  "bufferViews": [
    {
      "buffer": 0,
      "byteOffset": 0,
      "byteLength": 252,
      "target": 34962
    },
    {
      "buffer": 0,
      "byteOffset": 252,
      "byteLength": 252,
      "target": 34962
    },
    {
      "buffer": 0,
      "byteOffset": 504,
      "byteLength": 180,
      "target": 34963
    },
    {
      "buffer": 0,
      "byteOffset": 684,
      "byteLength": 252,
      "target": 34962
    },
    {
      "buffer": 0,
      "byteOffset": 936,
      "byteLength": 252,
      "target": 34962
    },
    {
      "buffer": 0,
      "byteOffset": 1188,
      "byteLength": 180,
      "target": 34963
    },
    {
      "buffer": 0,
      "byteOffset": 1368,
      "byteLength": 252,
      "target": 34962
    },
    {
      "buffer": 0,
      "byteOffset": 1620,
      "byteLength": 252,
      "target": 34962
    },
    {
      "buffer": 0,
      "byteOffset": 1872,
      "byteLength": 180,
      "target": 34963
    },
    {
      "buffer": 0,
      "byteOffset": 2052,
      "byteLength": 252,
      "target": 34962
    },
    {
      "buffer": 0,
      "byteOffset": 2304,
      "byteLength": 252,
      "target": 34962
    },
    {
      "buffer": 0,
      "byteOffset": 2556,
      "byteLength": 180,
      "target": 34963
    },
    {
      "buffer": 0,
      "byteOffset": 2736,
      "byteLength": 252,
      "target": 34962
    },
    {
      "buffer": 0,
      "byteOffset": 2988,
      "byteLength": 252,
      "target": 34962
    },
    {
      "buffer": 0,
      "byteOffset": 3240,
      "byteLength": 180,
      "target": 34963
    },
    {
      "buffer": 0,
      "byteOffset": 3420,
      "byteLength": 252,
      "target": 34962
    },
    {
      "buffer": 0,
      "byteOffset": 3672,
      "byteLength": 252,
      "target": 34962
    },
    {
      "buffer": 0,
      "byteOffset": 3924,
      "byteLength": 180,
      "target": 34963
    },
    {
      "buffer": 0,
      "byteOffset": 4104,
      "byteLength": 252,
      "target": 34962
    },
    {
      "buffer": 0,
      "byteOffset": 4356,
      "byteLength": 252,
      "target": 34962
    },
    {
      "buffer": 0,
      "byteOffset": 4608,
      "byteLength": 180,
      "target": 34963
    },
    {
      "buffer": 0,
      "byteOffset": 4788,
      "byteLength": 444,
      "target": 34962
    },
    {
      "buffer": 0,
      "byteOffset": 5232,
      "byteLength": 444,
      "target": 34962
    },
    {
      "buffer": 0,
      "byteOffset": 5676,
      "byteLength": 324,
      "target": 34963
    }
  ],
  "accessors": [
    {
      "bufferView": 0,
      "componentType": 5126,
      "count": 21,
      "type": "VEC3",
      "min": [
        -0.6691364258950477,
        0.0,
        -0.599806841067902
      ],
      "max": [
        0.5949662926349477,
        0.07299993682622091,
        0.4156948791355891
      ]
    },
    {
      "bufferView": 1,
      "componentType": 5126,
      "count": 21,
      "type": "VEC3"
    },
    {
      "bufferView": 2,
      "componentType": 5123,
      "count": 90,
      "type": "SCALAR"
    },
    {
      "bufferView": 3,
      "componentType": 5126,
      "count": 21,
      "type": "VEC3",
      "min": [
        -1.4747551139087423,
        0.0,
        -0.08811518562062237
      ],
      "max": [
        -0.46601463056884473,
        0.08408926949236062,
        0.7049133673312131
      ]
    },
    {
      "bufferView": 4,
      "componentType": 5126,
      "count": 21,
      "type": "VEC3"
    },
    {
      "bufferView": 5,
      "componentType": 5123,
      "count": 90,
      "type": "SCALAR"
    },
    {
      "bufferView": 6,
      "componentType": 5126,
      "count": 21,
      "type": "VEC3",
      "min": [
        0.46105006527591635,
        0.0,
        -0.047112363306768545
      ],
      "max": [
        1.5203264686572941,
        0.0969147730845021,
        0.7758445425051301
      ]
    },
    {
      "bufferView": 7,
      "componentType": 5126,
      "count": 21,
      "type": "VEC3"
    },
    {
      "bufferView": 8,
      "componentType": 5123,
      "count": 90,
      "type": "SCALAR"
    },
    {
      "bufferView": 9,
      "componentType": 5126,
      "count": 21,
      "type": "VEC3",
      "min": [
        -1.1882721193782557,
        0.0,
        -0.9643925516115274
      ],
      "max": [
        -0.10261901387442407,
        0.07256825668569611,
        -0.09367132565653241
      ]
    },
    {
      "bufferView": 10,
      "componentType": 5126,
      "count": 21,
      "type": "VEC3"
    },
    {
      "bufferView": 11,
      "componentType": 5123,
      "count": 90,
      "type": "SCALAR"
    },
    {
      "bufferView": 12,
      "componentType": 5126,
      "count": 21,
      "type": "VEC3",
      "min": [
        0.32577416605103965,
        0.0,
        -1.0836136421205602
      ],
      "max": [
        1.3169994310382664,
        0.08465061085195962,
        -0.27849115431540433
      ]
    },
    {
      "bufferView": 13,
      "componentType": 5126,
      "count": 21,
      "type": "VEC3"
    },
    {
      "bufferView": 14,
      "componentType": 5123,
      "count": 90,
      "type": "SCALAR"
    },
    {
      "bufferView": 15,
      "componentType": 5126,
      "count": 21,
      "type": "VEC3",
      "min": [
        -1.7652664451494289,
        0.0,
        -0.39668846139115777
      ],
      "max": [
        -1.1586560939567243,
        0.09687170766552167,
        0.1429009230993902
      ]
    },
    {
      "bufferView": 16,
      "componentType": 5126,
      "count": 21,
      "type": "VEC3"
    },
    {
      "bufferView": 17,
      "componentType": 5123,
      "count": 90,
      "type": "SCALAR"
    },
    {
      "bufferView": 18,
      "componentType": 5126,
      "count": 21,
      "type": "VEC3",
      "min": [
        1.0868269944287328,
        0.0,
        -0.37354223024548716
      ],
      "max": [
        1.7454105745691932,
        0.0722696794232209,
        0.18339676658091317
      ]
    },
    {
      "bufferView": 19,
      "componentType": 5126,
      "count": 21,
      "type": "VEC3"
    },
    {
      "bufferView": 20,
      "componentType": 5123,
      "count": 90,
      "type": "SCALAR"
    },
    {
      "bufferView": 21,
      "componentType": 5126,
      "count": 37,
      "type": "VEC3",
      "min": [
        -0.78,
        0.09,
        -0.36871202272777076
      ],
      "max": [
        0.78,
        0.193,
        0.3687120227277707
      ]
    },
    {
      "bufferView": 22,
      "componentType": 5126,
      "count": 37,
      "type": "VEC3"
    },
    {
      "bufferView": 23,
      "componentType": 5123,
      "count": 162,
      "type": "SCALAR"
    }
  ]
}