{
  "asset": {
    "version": "2.0",
    "generator": "A-Life true_25d alpha generator"
  },
  "scene": 0,
  "scenes": [
    {
      "nodes": [
        0
      ]
    }
  ],
  "nodes": [
    {
      "name": "terrain_stone_island",
      "mesh": 0
    }
  ],
  "meshes": [
    {
      "name": "terrain_stone_island-mesh",
      "primitives": [
        {
          "attributes": {
            "POSITION": 0,
            "NORMAL": 1
          },
          "indices": 2,
          "material": 0
        },
        {
          "attributes": {
            "POSITION": 3,
            "NORMAL": 4
          },
          "indices": 5,
          "material": 1
        },
        {
          "attributes": {
            "POSITION": 6,
            "NORMAL": 7
          },
          "indices": 8,
          "material": 2
        },
        {
          "attributes": {
            "POSITION": 9,
            "NORMAL": 10
          },
          "indices": 11,
          "material": 3
        },
        {
          "attributes": {
            "POSITION": 12,
            "NORMAL": 13
          },
          "indices": 14,
          "material": 4
        },
        {
          "attributes": {
            "POSITION": 15,
            "NORMAL": 16
          },
          "indices": 17,
          "material": 5
        },
        {
          "attributes": {
            "POSITION": 18,
            "NORMAL": 19
          },
          "indices": 20,
          "material": 6
        },
        {
          "attributes": {
            "POSITION": 21,
            "NORMAL": 22
          },
          "indices": 23,
          "material": 7
        }
      ]
    }
  ],
  "materials": [
    {
      "name": "terrain_stone_island-organic-ground-0-toon",
      "doubleSided": true,
      "emissiveFactor": [
        0.08346000000000002,
        0.08988000000000002,
        0.08560000000000001
      ],
      "pbrMetallicRoughness": {
        "baseColorFactor": [
          0.41730000000000006,
          0.4494,
          0.42800000000000005,
          1.0
        ],
        "metallicFactor": 0.0,
        "roughnessFactor": 0.82
      }
    },
    {
      "name": "terrain_stone_island-organic-ground-1-toon",
      "doubleSided": true,
      "emissiveFactor": [
        0.06708000000000001,
        0.07224,
        0.06880000000000001
      ],
      "pbrMetallicRoughness": {
        "baseColorFactor": [
          0.33540000000000003,
          0.36119999999999997,
          0.34400000000000003,
          1.0
        ],
        "metallicFactor": 0.0,
        "roughnessFactor": 0.82
      }
    },
    {
      "name": "terrain_stone_island-organic-ground-2-toon",
      "doubleSided": true,
      "emissiveFactor": [
        0.07800000000000001,
        0.084,
        0.08000000000000002
      ],
      "pbrMetallicRoughness": {
        "baseColorFactor": [
          0.39,
          0.42,
          0.4,
          1.0
        ],
        "metallicFactor": 0.0,
        "roughnessFactor": 0.82
      }
    },
    {
      "name": "terrain_stone_island-organic-ground-3-toon",
      "doubleSided": true,
      "emissiveFactor": [
        0.08892000000000001,
        0.09576000000000001,
        0.09120000000000002
      ],
      "pbrMetallicRoughness": {
        "baseColorFactor": [
          0.44460000000000005,
          0.47880000000000006,
          0.45600000000000007,
          1.0
        ],
        "metallicFactor": 0.0,
        "roughnessFactor": 0.82
      }
    },
    {
      "name": "terrain_stone_island-organic-ground-4-toon",
      "doubleSided": true,
      "emissiveFactor": [
        0.07254,
        0.07812,
        0.07440000000000001
      ],
      "pbrMetallicRoughness": {
        "baseColorFactor": [
          0.36269999999999997,
          0.39059999999999995,
          0.372,
          1.0
        ],
        "metallicFactor": 0.0,
        "roughnessFactor": 0.82
      }
    },
    {
      "name": "terrain_stone_island-organic-ground-5-toon",
      "doubleSided": true,
      "emissiveFactor": [
        0.08346000000000002,
        0.08988000000000002,
        0.08560000000000001
      ],
      "pbrMetallicRoughness": {
        "baseColorFactor": [
          0.41730000000000006,
          0.4494,
          0.42800000000000005,
          1.0
        ],
        "metallicFactor": 0.0,
        "roughnessFactor": 0.82
      }
    },
    {
      "name": "terrain_stone_island-organic-ground-6-toon",
      "doubleSided": true,
      "emissiveFactor": [
        0.06708000000000001,
        0.07224,
        0.06880000000000001
      ],
      "pbrMetallicRoughness": {
        "baseColorFactor": [
          0.33540000000000003,
          0.36119999999999997,
          0.34400000000000003,
          1.0
        ],
        "metallicFactor": 0.0,
        "roughnessFactor": 0.82
      }
    },
    {
      "name": "terrain_stone_island-biome-detail-toon",
      "doubleSided": true,
      "emissiveFactor": [
        0.136,
        0.13999999999999999,
        0.126
      ],
      "pbrMetallicRoughness": {
        "baseColorFactor": [
          0.68,
          0.7,
          0.63,
          1.0
        ],
        "metallicFactor": 0.0,
        "roughnessFactor": 0.82
      }
    }
  ],
  "buffers": [
    {
      "byteLength": 5412,
      "uri": "data:application/octet-stream;base64,"
    }
  ],
  "bufferViews": [
    {
      "buffer": 0,
      "byteOffset": 0,
      "byteLength": 252,
      "target": 34962
    },
    {
      "buffer": 0,
      "byteOffset": 252,
      "byteLength": 252,
      "target": 34962
    },
    {
      "buffer": 0,
      "byteOffset": 504,
      "byteLength": 180,
      "target": 34963
    },
    {
      "buffer": 0,
      "byteOffset": 684,
      "byteLength": 252,
      "target": 34962
    },
    {
      "buffer": 0,
      "byteOffset": 936,
      "byteLength": 252,
      "target": 34962
    },
    {
      "buffer": 0,
      "byteOffset": 1188,
      "byteLength": 180,
      "target": 34963
    },
    {
      "buffer": 0,
      "byteOffset": 1368,
      "byteLength": 252,
      "target": 34962
    },
    {
      "buffer": 0,
      "byteOffset": 1620,
      "byteLength": 252,
      "target": 34962
    },
    {
      "buffer": 0,
      "byteOffset": 1872,
      "byteLength": 180,
      "target": 34963
    },
    {
      "buffer": 0,
      "byteOffset": 2052,
      "byteLength": 252,
      "target": 34962
    },
    {
      "buffer": 0,
      "byteOffset": 2304,
      "byteLength": 252,
      "target": 34962
    },
    {
      "buffer": 0,
      "byteOffset": 2556,
      "byteLength": 180,
      "target": 34963
    },
    {
      "buffer": 0,
      "byteOffset": 2736,
      "byteLength": 252,
      "target": 34962
    },
    {
      "buffer": 0,
      "byteOffset": 2988,
      "byteLength": 252,
      "target": 34962
    },
    {
      "buffer": 0,
      "byteOffset": 3240,
      "byteLength": 180,
      "target": 34963
    },
    {
      "buffer": 0,
      "byteOffset": 3420,
      "byteLength": 252,
      "target": 34962
    },
    {
      "buffer": 0,
      "byteOffset": 3672,
      "byteLength": 252,
      "target": 34962
    },
    {
      "buffer": 0,
      "byteOffset": 3924,
      "byteLength": 180,
      "target": 34963
    },
    {
      "buffer": 0,
      "byteOffset": 4104,
      "byteLength": 252,
      "target": 34962
    },
    {
      "buffer": 0,
      "byteOffset": 4356,
      "byteLength": 252,
      "target": 34962
    },
    {
      "buffer": 0,
      "byteOffset": 4608,
      "byteLength": 180,
      "target": 34963
    },
    {
      "buffer": 0,
      "byteOffset": 4788,
      "byteLength": 240,
      "target": 34962
    },
    {
      "buffer": 0,
      "byteOffset": 5028,
      "byteLength": 240,
      "target": 34962
    },
    {
      "buffer": 0,
      "byteOffset": 5268,
      "byteLength": 144,
      "target": 34963
    }
  ],
  "accessors": [
    {
      "bufferView": 0,
      "componentType": 5126,
      "count": 21,
      "type": "VEC3",
      "min": [
        -0.5204662286084103,
        0.0,
        -0.4840531991900477
      ],
      "max": [
        0.6543072976442048,
        0.07294165725149318,
        0.5502069733370539
      ]
    },
    {
      "bufferView": 1,
      "componentType": 5126,
      "count": 21,
      "type": "VEC3"
    },
    {
      "bufferView": 2,
      "componentType": 5123,
      "count": 90,
      "type": "SCALAR"
    },
    {
      "bufferView": 3,
      "componentType": 5126,
      "count": 21,
      "type": "VEC3",
      "min": [
        -1.3220605146582827,
        0.0,
        0.0321383883846692
      ],
      "max": [
        -0.3790817389425116,
        0.0844998842254817,
        0.8505493987634289
      ]
    },
    {
      "bufferView": 4,
      "componentType": 5126,
      "count": 21,
      "type": "VEC3"
    },
    {
      "bufferView": 5,
      "componentType": 5123,
      "count": 90,
      "type": "SCALAR"
    },
    {
      "bufferView": 6,
      "componentType": 5126,
      "count": 21,
      "type": "VEC3",
      "min": [
        0.4398909941872182,
        0.0,
        -0.10009432092393444
      ],
      "max": [
        1.44518647327057,
        0.09670745694449837,
        0.7633180991893476
      ]
    },
    {
      "bufferView": 7,
      "componentType": 5126,
      "count": 21,
      "type": "VEC3"
    },
    {
      "bufferView": 8,
      "componentType": 5123,
      "count": 90,
      "type": "SCALAR"
    },
    {
      "bufferView": 9,
      "componentType": 5126,
      "count": 21,
      "type": "VEC3",
      "min": [
        -1.3930023903676458,
        0.0,
        -1.1173401915816972
      ],
      "max": [
        -0.3394043589362146,
        0.07283311136342287,
        -0.19082019169923498
      ]
    },
    {
      "bufferView": 10,
      "componentType": 5126,
      "count": 21,
      "type": "VEC3"
    },
    {
      "bufferView": 11,
      "componentType": 5123,
      "count": 90,
      "type": "SCALAR"
    },
    {
      "bufferView": 12,
      "componentType": 5126,
      "count": 21,
      "type": "VEC3",
      "min": [
        0.1279445215292071,
        0.0,
        -1.119429207113021
      ],
      "max": [
        1.1157304063755564,
        0.08429632958102118,
        -0.25318989380950496
      ]
    },
    {
      "bufferView": 13,
      "componentType": 5126,
      "count": 21,
      "type": "VEC3"
    },
    {
      "bufferView": 14,
      "componentType": 5123,
      "count": 90,
      "type": "SCALAR"
    },
    {
      "bufferView": 15,
      "componentType": 5126,
      "count": 21,
      "type": "VEC3",
      "min": [
        -1.7698102285466175,
        0.0,
        -0.27942188381755745
      ],
      "max": [
        -1.148774109301444,
        0.09698815594746359,
        0.30316680488710457
      ]
    },
    {
      "bufferView": 16,
      "componentType": 5126,
      "count": 21,
      "type": "VEC3"
    },
    {
      "bufferView": 17,
      "componentType": 5123,
      "count": 90,
      "type": "SCALAR"
    },
    {
      "bufferView": 18,
      "componentType": 5126,
      "count": 21,
      "type": "VEC3",
      "min": [
        1.1892105801506032,
        0.0,
        -0.30988444436014023
      ],
      "max": [
        1.8796351512544311,
        0.07263166212130617,
        0.2894307836259888
      ]
    },
    {
      "bufferView": 19,
      "componentType": 5126,
      "count": 21,
      "type": "VEC3"
    },
    {
      "bufferView": 20,
      "componentType": 5123,
      "count": 90,
      "type": "SCALAR"
    },
    {
      "bufferView": 21,
      "componentType": 5126,
      "count": 20,
      "type": "VEC3",
      "min": [
        -1.06,
        0.0,
        -0.786
      ],
      "max": [
        0.88,
        0.34,
        0.8099999999999999
      ]
    },
    {
      "bufferView": 22,
      "componentType": 5126,
      "count": 20,
      "type": "VEC3"
    },
    {
      "bufferView": 23,
      "componentType": 5123,
      "count": 72,
      "type": "SCALAR"
    }
  ]
}