{
  "asset": {
    "version": "2.0",
    "generator": "A-Life true_25d alpha generator"
  },
  "scene": 0,
  "scenes": [
    {
      "nodes": [
        0
      ]
    }
  ],
  "nodes": [
    {
      "name": "terrain_sand_island",
      "mesh": 0
    }
  ],
  "meshes": [
    {
      "name": "terrain_sand_island-mesh",
      "primitives": [
        {
          "attributes": {
            "POSITION": 0,
            "NORMAL": 1
          },
          "indices": 2,
          "material": 0
        },
        {
          "attributes": {
            "POSITION": 3,
            "NORMAL": 4
          },
          "indices": 5,
          "material": 1
        },
        {
          "attributes": {
            "POSITION": 6,
            "NORMAL": 7
          },
          "indices": 8,
          "material": 2
        },
        {
          "attributes": {
            "POSITION": 9,
            "NORMAL": 10
          },
          "indices": 11,
          "material": 3
        },
        {
          "attributes": {
            "POSITION": 12,
            "NORMAL": 13
          },
          "indices": 14,
          "material": 4
        },
        {
          "attributes": {
            "POSITION": 15,
            "NORMAL": 16
          },
          "indices": 17,
          "material": 5
        },
        {
          "attributes": {
            "POSITION": 18,
            "NORMAL": 19
          },
          "indices": 20,
          "material": 6
        },
        {
          "attributes": {
            "POSITION": 21,
            "NORMAL": 22
          },
          "indices": 23,
          "material": 7
        }
      ]
    }
  ],
  "materials": [
    {
      "name": "terrain_sand_island-organic-ground-0-toon",
      "doubleSided": true,
      "emissiveFactor": [
        0.13019999999999998,
        0.10416000000000002,
        0.055799999999999995
      ],
      "pbrMetallicRoughness": {
        "baseColorFactor": [
          0.6509999999999999,
          0.5208,
          0.27899999999999997,
          1.0
        ],
        "metallicFactor": 0.0,
        "roughnessFactor": 0.82
      }
    },
    {
      "name": "terrain_sand_island-organic-ground-1-toon",
      "doubleSided": true,
      "emissiveFactor": [
        0.14980000000000002,
        0.11984000000000002,
        0.06420000000000001
      ],
      "pbrMetallicRoughness": {
        "baseColorFactor": [
          0.749,
          0.5992000000000001,
          0.321,
          1.0
        ],
        "metallicFactor": 0.0,
        "roughnessFactor": 0.82
      }
    },
    {
      "name": "terrain_sand_island-organic-ground-2-toon",
      "doubleSided": true,
      "emissiveFactor": [
        0.12040000000000001,
        0.09632000000000002,
        0.05160000000000001
      ],
      "pbrMetallicRoughness": {
        "baseColorFactor": [
          0.602,
          0.48160000000000003,
          0.258,
          1.0
        ],
        "metallicFactor": 0.0,
        "roughnessFactor": 0.82
      }
    },
    {
      "name": "terrain_sand_island-organic-ground-3-toon",
      "doubleSided": true,
      "emissiveFactor": [
        0.13999999999999999,
        0.11200000000000002,
        0.06
      ],
      "pbrMetallicRoughness": {
        "baseColorFactor": [
          0.7,
          0.56,
          0.3,
          1.0
        ],
        "metallicFactor": 0.0,
        "roughnessFactor": 0.82
      }
    },
    {
      "name": "terrain_sand_island-organic-ground-4-toon",
      "doubleSided": true,
      "emissiveFactor": [
        0.15960000000000002,
        0.12768000000000002,
        0.0684
      ],
      "pbrMetallicRoughness": {
        "baseColorFactor": [
          0.798,
          0.6384000000000001,
          0.342,
          1.0
        ],
        "metallicFactor": 0.0,
        "roughnessFactor": 0.82
      }
    },
    {
      "name": "terrain_sand_island-organic-ground-5-toon",
      "doubleSided": true,
      "emissiveFactor": [
        0.13019999999999998,
        0.10416000000000002,
        0.055799999999999995
      ],
      "pbrMetallicRoughness": {
        "baseColorFactor": [
          0.6509999999999999,
          0.5208,
          0.27899999999999997,
          1.0
        ],
        "metallicFactor": 0.0,
        "roughnessFactor": 0.82
      }
    },
    {
      "name": "terrain_sand_island-organic-ground-6-toon",
      "doubleSided": true,
      "emissiveFactor": [
        0.14980000000000002,
        0.11984000000000002,
        0.06420000000000001
      ],
      "pbrMetallicRoughness": {
        "baseColorFactor": [
          0.749,
          0.5992000000000001,
          0.321,
          1.0
        ],
        "metallicFactor": 0.0,
        "roughnessFactor": 0.82
      }
    },
    {
      "name": "terrain_sand_island-biome-detail-toon",
      "doubleSided": true,
      "emissiveFactor": [
        0.192,
        0.164,
        0.084
      ],
      "pbrMetallicRoughness": {
        "baseColorFactor": [
          0.96,
          0.82,
          0.42,
          1.0
        ],
        "metallicFactor": 0.0,
        "roughnessFactor": 0.82
      }
    }
  ],
  "buffers": [
    {
      "byteLength": 6270,
      "uri": "data:application/octet-stream;base64,"
    }
  ],
  "bufferViews": [
    {
      "buffer": 0,
      "byteOffset": 0,
      "byteLength": 252,
      "target": 34962
    },
    {
      "buffer": 0,
      "byteOffset": 252,
      "byteLength": 252,
      "target": 34962
    },
    {
      "buffer": 0,
      "byteOffset": 504,
      "byteLength": 180,
      "target": 34963
    },
    {
      "buffer": 0,
      "byteOffset": 684,
      "byteLength": 252,
      "target": 34962
    },
    {
      "buffer": 0,
      "byteOffset": 936,
      "byteLength": 252,
      "target": 34962
    },
    {
      "buffer": 0,
      "byteOffset": 1188,
      "byteLength": 180,
      "target": 34963
    },
    {
      "buffer": 0,
      "byteOffset": 1368,
      "byteLength": 252,
      "target": 34962
    },
    {
      "buffer": 0,
      "byteOffset": 1620,
      "byteLength": 252,
      "target": 34962
    },
    {
      "buffer": 0,
      "byteOffset": 1872,
      "byteLength": 180,
      "target": 34963
    },
    {
      "buffer": 0,
      "byteOffset": 2052,
      "byteLength": 252,
      "target": 34962
    },
    {
      "buffer": 0,
      "byteOffset": 2304,
      "byteLength": 252,
      "target": 34962
    },
    {
      "buffer": 0,
      "byteOffset": 2556,
      "byteLength": 180,
      "target": 34963
    },
    {
      "buffer": 0,
      "byteOffset": 2736,
      "byteLength": 252,
      "target": 34962
    },
    {
      "buffer": 0,
      "byteOffset": 2988,
      "byteLength": 252,
      "target": 34962
    },
    {
      "buffer": 0,
      "byteOffset": 3240,
      "byteLength": 180,
      "target": 34963
    },
    {
      "buffer": 0,
      "byteOffset": 3420,
      "byteLength": 252,
      "target": 34962
    },
    {
      "buffer": 0,
      "byteOffset": 3672,
      "byteLength": 252,
      "target": 34962
    },
    {
      "buffer": 0,
      "byteOffset": 3924,
      "byteLength": 180,
      "target": 34963
    },
    {
      "buffer": 0,
      "byteOffset": 4104,
      "byteLength": 252,
      "target": 34962
    },
    {
      "buffer": 0,
      "byteOffset": 4356,
      "byteLength": 252,
      "target": 34962
    },
    {
      "buffer": 0,
      "byteOffset": 4608,
      "byteLength": 180,
      "target": 34963
    },
    {
      "buffer": 0,
      "byteOffset": 4788,
      "byteLength": 684,
      "target": 34962
    },
    {
      "buffer": 0,
      "byteOffset": 5472,
      "byteLength": 684,
      "target": 34962
    },
    {
      "buffer": 0,
      "byteOffset": 6156,
      "byteLength": 114,
      "target": 34963
    }
  ],
  "accessors": [
    {
      "bufferView": 0,
      "componentType": 5126,
      "count": 21,
      "type": "VEC3",
      "min": [
        -0.5891571372103761,
        0.0,
        -0.39816114176501616
      ],
      "max": [
        0.5847988327336696,
        0.07269008260586847,
        0.5666419875876114
      ]
    },
    {
      "bufferView": 1,
      "componentType": 5126,
      "count": 21,
      "type": "VEC3"
    },
    {
      "bufferView": 2,
      "componentType": 5123,
      "count": 90,
      "type": "SCALAR"
    },
    {
      "bufferView": 3,
      "componentType": 5126,
      "count": 21,
      "type": "VEC3",
      "min": [
        -1.3378526823690202,
        0.0,
        0.015929614485640453
      ],
      "max": [
        -0.3904311656579398,
        0.0845219652246068,
        0.7779409228555998
      ]
    },
    {
      "bufferView": 4,
      "componentType": 5126,
      "count": 21,
      "type": "VEC3"
    },
    {
      "bufferView": 5,
      "componentType": 5123,
      "count": 90,
      "type": "SCALAR"
    },
    {
      "bufferView": 6,
      "componentType": 5126,
      "count": 21,
      "type": "VEC3",
      "min": [
        0.4739045710022325,
        0.0,
        -0.1332648201678196
      ],
      "max": [
        1.4886883557325334,
        0.09693373233068207,
        0.6682686377155773
      ]
    },
    {
      "bufferView": 7,
      "componentType": 5126,
      "count": 21,
      "type": "VEC3"
    },
    {
      "bufferView": 8,
      "componentType": 5123,
      "count": 90,
      "type": "SCALAR"
    },
    {
      "bufferView": 9,
      "componentType": 5126,
      "count": 21,
      "type": "VEC3",
      "min": [
        -1.368602685484028,
        0.0,
        -1.0577503052336206
      ],
      "max": [
        -0.30152784488200957,
        0.07202303796394423,
        -0.19114860203480183
      ]
    },
    {
      "bufferView": 10,
      "componentType": 5126,
      "count": 21,
      "type": "VEC3"
    },
    {
      "bufferView": 11,
      "componentType": 5123,
      "count": 90,
      "type": "SCALAR"
    },
    {
      "bufferView": 12,
      "componentType": 5126,
      "count": 21,
      "type": "VEC3",
      "min": [
        0.09835473054552601,
        0.0,
        -0.9975711631564906
      ],
      "max": [
        1.1002853885057469,
        0.08499819413015128,
        -0.17849710673794372
      ]
    },
    {
      "bufferView": 13,
      "componentType": 5126,
      "count": 21,
      "type": "VEC3"
    },
    {
      "bufferView": 14,
      "componentType": 5123,
      "count": 90,
      "type": "SCALAR"
    },
    {
      "bufferView": 15,
      "componentType": 5126,
      "count": 21,
      "type": "VEC3",
      "min": [
        -1.827029682324508,
        0.0,
        -0.23200944651245692
      ],
      "max": [
        -1.197377676948808,
        0.09679190406765326,
        0.3264108650208912
      ]
    },
    {
      "bufferView": 16,
      "componentType": 5126,
      "count": 21,
      "type": "VEC3"
    },
    {
      "bufferView": 17,
      "componentType": 5123,
      "count": 90,
      "type": "SCALAR"
    },
    {
      "bufferView": 18,
      "componentType": 5126,
      "count": 21,
      "type": "VEC3",
      "min": [
        1.1685252204593872,
        0.0,
        -0.3629879753441121
      ],
      "max": [
        1.866951738901783,
        0.07288282392328399,
        0.2205464802861494
      ]
    },
    {
      "bufferView": 19,
      "componentType": 5126,
      "count": 21,
      "type": "VEC3"
    },
    {
      "bufferView": 20,
      "componentType": 5123,
      "count": 90,
      "type": "SCALAR"
    },
    {
      "bufferView": 21,
      "componentType": 5126,
      "count": 57,
      "type": "VEC3",
      "min": [
        -1.2211267167951199,
        0.1,
        -0.6809085778939443
      ],
      "max": [
        1.2111255144117274,
        0.3176,
        0.702319357850062
      ]
    },
    {
      "bufferView": 22,
      "componentType": 5126,
      "count": 57,
      "type": "VEC3"
    },
    {
      "bufferView": 23,
      "componentType": 5123,
      "count": 57,
      "type": "SCALAR"
    }
  ]
}