<?xml version="1.0" encoding="UTF-8" standalone="no"?>
<!DOCTYPE svg PUBLIC "-//W3C//DTD SVG 1.1//EN"
 "http://www.w3.org/Graphics/SVG/1.1/DTD/svg11.dtd">
<!-- Generated by graphviz version 2.42.4 (0)
 -->
<!-- Title: G Pages: 1 -->
<svg width="971pt" height="662pt"
 viewBox="0.00 0.00 971.00 662.00" xmlns="http://www.w3.org/2000/svg" xmlns:xlink="http://www.w3.org/1999/xlink">
<g id="graph0" class="graph" transform="scale(1 1) rotate(0) translate(18 644)">
<title>G</title>
<polygon fill="white" stroke="transparent" points="-18,18 -18,-644 953,-644 953,18 -18,18"/>
<!-- gen -->
<g id="node1" class="node">
<title>gen</title>
<path fill="#e8f1fb" stroke="#355070" d="M274,-532C274,-532 138,-532 138,-532 132,-532 126,-526 126,-520 126,-520 126,-508 126,-508 126,-502 132,-496 138,-496 138,-496 274,-496 274,-496 280,-496 286,-502 286,-508 286,-508 286,-520 286,-520 286,-526 280,-532 274,-532"/>
<text text-anchor="middle" x="206" y="-517" font-family="Lato" font-size="10.00">Genetics and Development</text>
<text text-anchor="middle" x="206" y="-506" font-family="Lato" font-size="10.00">heritable construction program</text>
</g>
<!-- body -->
<g id="node2" class="node">
<title>body</title>
<path fill="#fcefe8" stroke="#355070" d="M464,-412C464,-412 292,-412 292,-412 286,-412 280,-406 280,-400 280,-400 280,-388 280,-388 280,-382 286,-376 292,-376 292,-376 464,-376 464,-376 470,-376 476,-382 476,-388 476,-388 476,-400 476,-400 476,-406 470,-412 464,-412"/>
<text text-anchor="middle" x="378" y="-397" font-family="Lato" font-size="10.00">Body and Physiology</text>
<text text-anchor="middle" x="378" y="-386" font-family="Lato" font-size="10.00">morphology, organs, tissues, mechanics</text>
</g>
<!-- gen&#45;&gt;body -->
<g id="edge1" class="edge">
<title>gen&#45;&gt;body</title>
<path fill="none" stroke="#556270" d="M231.01,-495.84C261.71,-474.78 313.77,-439.06 346.99,-416.28"/>
<polygon fill="#556270" stroke="#556270" points="348.57,-418.16 352.96,-412.18 345.8,-414.12 348.57,-418.16"/>
<text text-anchor="middle" x="338" y="-451.8" font-family="Lato" font-size="9.00">constructs</text>
</g>
<!-- bio -->
<g id="node3" class="node">
<title>bio</title>
<path fill="#eef7e8" stroke="#355070" d="M327.5,-318C327.5,-318 152.5,-318 152.5,-318 146.5,-318 140.5,-312 140.5,-306 140.5,-306 140.5,-294 140.5,-294 140.5,-288 146.5,-282 152.5,-282 152.5,-282 327.5,-282 327.5,-282 333.5,-282 339.5,-288 339.5,-294 339.5,-294 339.5,-306 339.5,-306 339.5,-312 333.5,-318 327.5,-318"/>
<text text-anchor="middle" x="240" y="-303" font-family="Lato" font-size="10.00">Biochemistry</text>
<text text-anchor="middle" x="240" y="-292" font-family="Lato" font-size="10.00">chemicals, reactions, receptors, emitters</text>
</g>
<!-- gen&#45;&gt;bio -->
<g id="edge2" class="edge">
<title>gen&#45;&gt;bio</title>
<path fill="none" stroke="#556270" d="M207.36,-495.6C209.56,-469.49 214.42,-418.67 222,-376 225.06,-358.78 229.68,-339.6 233.48,-324.95"/>
<polygon fill="#556270" stroke="#556270" points="235.86,-325.55 235.27,-318.15 231.12,-324.3 235.86,-325.55"/>
<text text-anchor="middle" x="243" y="-391.8" font-family="Lato" font-size="9.00">constructs</text>
</g>
<!-- brain -->
<g id="node4" class="node">
<title>brain</title>
<path fill="#f2ecfa" stroke="#355070" d="M310,-224C310,-224 170,-224 170,-224 164,-224 158,-218 158,-212 158,-212 158,-200 158,-200 158,-194 164,-188 170,-188 170,-188 310,-188 310,-188 316,-188 322,-194 322,-200 322,-200 322,-212 322,-212 322,-218 316,-224 310,-224"/>
<text text-anchor="middle" x="240" y="-209" font-family="Lato" font-size="10.00">Brain and Cognitive Memory</text>
<text text-anchor="middle" x="240" y="-198" font-family="Lato" font-size="10.00">adaptive information processing</text>
</g>
<!-- gen&#45;&gt;brain -->
<g id="edge3" class="edge">
<title>gen&#45;&gt;brain</title>
<path fill="none" stroke="#556270" d="M190.61,-496C156.98,-456.69 83.11,-357.13 124,-282 137.52,-257.15 163.21,-239.28 186.99,-227.23"/>
<polygon fill="#556270" stroke="#556270" points="188.09,-229.42 193.3,-224.14 185.94,-225.01 188.09,-229.42"/>
<text text-anchor="middle" x="135" y="-344.8" font-family="Lato" font-size="9.00">constructs</text>
</g>
<!-- emb -->
<g id="node5" class="node">
<title>emb</title>
<path fill="#fff7e2" stroke="#355070" d="M329,-130C329,-130 151,-130 151,-130 145,-130 139,-124 139,-118 139,-118 139,-106 139,-106 139,-100 145,-94 151,-94 151,-94 329,-94 329,-94 335,-94 341,-100 341,-106 341,-106 341,-118 341,-118 341,-124 335,-130 329,-130"/>
<text text-anchor="middle" x="240" y="-115" font-family="Lato" font-size="10.00">Embodiment Adapters</text>
<text text-anchor="middle" x="240" y="-104" font-family="Lato" font-size="10.00">sensor transduction and motor synergies</text>
</g>
<!-- gen&#45;&gt;emb -->
<g id="edge4" class="edge">
<title>gen&#45;&gt;emb</title>
<path fill="none" stroke="#556270" d="M125.77,-499.99C67.92,-485.5 0,-455.59 0,-395 0,-395 0,-395 0,-205 0,-172.64 77.02,-147.42 143.79,-131.64"/>
<polygon fill="#556270" stroke="#556270" points="144.37,-134.02 150.63,-130.04 143.26,-129.25 144.37,-134.02"/>
<text text-anchor="middle" x="21" y="-297.8" font-family="Lato" font-size="9.00">constructs</text>
</g>
<!-- body&#45;&gt;bio -->
<g id="edge5" class="edge">
<title>body&#45;&gt;bio</title>
<path fill="none" stroke="#556270" d="M346.38,-371.92C324.12,-357.08 294.42,-337.28 272.06,-322.38"/>
<polygon fill="#556270" stroke="#556270" points="345.18,-374.07 352.37,-375.91 347.9,-369.99 345.18,-374.07"/>
<polygon fill="#556270" stroke="#556270" points="273.15,-320.15 265.96,-318.31 270.43,-324.23 273.15,-320.15"/>
<text text-anchor="middle" x="346" y="-344.8" font-family="Lato" font-size="9.00">loci / physiology</text>
</g>
<!-- bio&#45;&gt;brain -->
<g id="edge6" class="edge">
<title>bio&#45;&gt;brain</title>
<path fill="none" stroke="#556270" d="M240,-274.32C240,-260.96 240,-244.53 240,-231.25"/>
<polygon fill="#556270" stroke="#556270" points="237.55,-274.7 240,-281.7 242.45,-274.7 237.55,-274.7"/>
<polygon fill="#556270" stroke="#556270" points="242.45,-231.23 240,-224.23 237.55,-231.23 242.45,-231.23"/>
<text text-anchor="middle" x="290" y="-250.8" font-family="Lato" font-size="9.00">receptors / neuroemitters</text>
</g>
<!-- brain&#45;&gt;emb -->
<g id="edge7" class="edge">
<title>brain&#45;&gt;emb</title>
<path fill="none" stroke="#556270" d="M240,-180.32C240,-166.96 240,-150.53 240,-137.25"/>
<polygon fill="#556270" stroke="#556270" points="237.55,-180.7 240,-187.7 242.45,-180.7 237.55,-180.7"/>
<polygon fill="#556270" stroke="#556270" points="242.45,-137.23 240,-130.23 237.55,-137.23 242.45,-137.23"/>
<text text-anchor="middle" x="288.5" y="-156.8" font-family="Lato" font-size="9.00">sensory and motor ports</text>
</g>
<!-- world -->
<g id="node6" class="node">
<title>world</title>
<path fill="#e9f5f5" stroke="#355070" d="M736,-36C736,-36 558,-36 558,-36 552,-36 546,-30 546,-24 546,-24 546,-12 546,-12 546,-6 552,0 558,0 558,0 736,0 736,0 742,0 748,-6 748,-12 748,-12 748,-24 748,-24 748,-30 742,-36 736,-36"/>
<text text-anchor="middle" x="647" y="-21" font-family="Lato" font-size="10.00">World and Ecology</text>
<text text-anchor="middle" x="647" y="-10" font-family="Lato" font-size="10.00">physics, resources, agents, environments</text>
</g>
<!-- emb&#45;&gt;world -->
<g id="edge8" class="edge">
<title>emb&#45;&gt;world</title>
<path fill="none" stroke="#556270" d="M308.08,-92.04C345.41,-81.93 392.6,-69.63 435,-60 470.73,-51.88 510.07,-43.99 545.07,-37.33"/>
<polygon fill="#556270" stroke="#556270" points="307.34,-89.7 301.23,-93.9 308.63,-94.43 307.34,-89.7"/>
<polygon fill="#556270" stroke="#556270" points="545.59,-39.72 552.01,-36.01 544.68,-34.91 545.59,-39.72"/>
<text text-anchor="middle" x="493.5" y="-62.8" font-family="Lato" font-size="9.00">grounded perception / action</text>
</g>
<!-- world&#45;&gt;body -->
<g id="edge9" class="edge">
<title>world&#45;&gt;body</title>
<path fill="none" stroke="#556270" d="M617.1,-41.07C598.08,-57.86 577,-82.81 577,-111 577,-301 577,-301 577,-301 577,-347.89 530.92,-370.96 483.1,-382.27"/>
<polygon fill="#556270" stroke="#556270" points="619.16,-42.53 622.91,-36.13 615.99,-38.8 619.16,-42.53"/>
<polygon fill="#556270" stroke="#556270" points="482.34,-379.93 476.04,-383.85 483.41,-384.71 482.34,-379.93"/>
<text text-anchor="middle" x="622.5" y="-203.8" font-family="Lato" font-size="9.00">physical consequences</text>
</g>
<!-- slm -->
<g id="node7" class="node">
<title>slm</title>
<path fill="#f4f4f4" stroke="#355070" d="M516,-318C516,-318 384,-318 384,-318 378,-318 372,-312 372,-306 372,-306 372,-294 372,-294 372,-288 378,-282 384,-282 384,-282 516,-282 516,-282 522,-282 528,-288 528,-294 528,-294 528,-306 528,-306 528,-312 522,-318 516,-318"/>
<text text-anchor="middle" x="450" y="-303" font-family="Lato" font-size="10.00">Shared Semantic&#45;Prior Service</text>
<text text-anchor="middle" x="450" y="-292" font-family="Lato" font-size="10.00">bounded semantic hints</text>
</g>
<!-- slm&#45;&gt;brain -->
<g id="edge10" class="edge">
<title>slm&#45;&gt;brain</title>
<path fill="none" stroke="#556270" d="M417.78,-281.85C397.91,-271.53 371.75,-258.42 348,-248 330.89,-240.5 311.94,-233.03 294.75,-226.56"/>
<polygon fill="#556270" stroke="#556270" points="295.41,-224.2 288,-224.04 293.7,-228.79 295.41,-224.2"/>
<text text-anchor="middle" x="405" y="-250.8" font-family="Lato" font-size="9.00">semantic prior only</text>
</g>
<!-- teacher -->
<g id="node8" class="node">
<title>teacher</title>
<path fill="#f4f4f4" stroke="#355070" d="M796,-472C796,-472 638,-472 638,-472 632,-472 626,-466 626,-460 626,-460 626,-448 626,-448 626,-442 632,-436 638,-436 638,-436 796,-436 796,-436 802,-436 808,-442 808,-448 808,-448 808,-460 808,-460 808,-466 802,-472 796,-472"/>
<text text-anchor="middle" x="717" y="-457" font-family="Lato" font-size="10.00">Teacher System</text>
<text text-anchor="middle" x="717" y="-446" font-family="Lato" font-size="10.00">planner plus embodied teacher actor</text>
</g>
<!-- teacher&#45;&gt;world -->
<g id="edge11" class="edge">
<title>teacher&#45;&gt;world</title>
<path fill="none" stroke="#556270" d="M717,-435.9C717,-415.12 717,-378.99 717,-348 717,-348 717,-348 717,-111 717,-82.81 695.92,-57.86 676.9,-41.07"/>
<polygon fill="#556270" stroke="#556270" points="678.01,-38.8 671.09,-36.13 674.84,-42.53 678.01,-38.8"/>
<text text-anchor="middle" x="775.5" y="-250.8" font-family="Lato" font-size="9.00">speech, demonstration, setup</text>
</g>
<!-- game -->
<g id="node9" class="node">
<title>game</title>
<path fill="#fff4d9" stroke="#355070" d="M798,-626C798,-626 636,-626 636,-626 630,-626 624,-620 624,-614 624,-614 624,-602 624,-602 624,-596 630,-590 636,-590 636,-590 798,-590 798,-590 804,-590 810,-596 810,-602 810,-602 810,-614 810,-614 810,-620 804,-626 798,-626"/>
<text text-anchor="middle" x="717" y="-611" font-family="Lato" font-size="10.00">Player, Breeding, Culture, Community</text>
<text text-anchor="middle" x="717" y="-600" font-family="Lato" font-size="10.00">game and research interfaces</text>
</g>
<!-- game&#45;&gt;gen -->
<g id="edge13" class="edge">
<title>game&#45;&gt;gen</title>
<path fill="none" stroke="#556270" d="M623.87,-590.23C529.74,-573.29 385.41,-547.3 293.39,-530.73"/>
<polygon fill="#556270" stroke="#556270" points="293.63,-528.29 286.31,-529.46 292.76,-533.11 293.63,-528.29"/>
<text text-anchor="middle" x="521" y="-558.8" font-family="Lato" font-size="9.00">breeding / assimilation</text>
</g>
<!-- game&#45;&gt;world -->
<g id="edge14" class="edge">
<title>game&#45;&gt;world</title>
<path fill="none" stroke="#556270" d="M783.65,-589.89C819.32,-576.29 856,-553.05 856,-515 856,-515 856,-515 856,-111 856,-61.39 806.07,-38.3 755.01,-27.65"/>
<polygon fill="#556270" stroke="#556270" points="755.48,-25.25 748.13,-26.29 754.52,-30.06 755.48,-25.25"/>
<text text-anchor="middle" x="895.5" y="-297.8" font-family="Lato" font-size="9.00">environment design</text>
</g>
<!-- game&#45;&gt;teacher -->
<g id="edge12" class="edge">
<title>game&#45;&gt;teacher</title>
<path fill="none" stroke="#556270" d="M717,-589.86C717,-562.95 717,-510.66 717,-479.7"/>
<polygon fill="#556270" stroke="#556270" points="719.45,-479.31 717,-472.31 714.55,-479.31 719.45,-479.31"/>
<text text-anchor="middle" x="768.5" y="-558.8" font-family="Lato" font-size="9.00">curricula / player teaching</text>
</g>
</g>
</svg>
