<?xml version="1.0" encoding="UTF-8" standalone="no"?>
<!DOCTYPE svg PUBLIC "-//W3C//DTD SVG 1.1//EN"
 "http://www.w3.org/Graphics/SVG/1.1/DTD/svg11.dtd">
<!-- Generated by graphviz version 2.42.4 (0)
 -->
<!-- Title: G Pages: 1 -->
<svg width="409pt" height="413pt"
 viewBox="0.00 0.00 409.03 413.23" xmlns="http://www.w3.org/2000/svg" xmlns:xlink="http://www.w3.org/1999/xlink">
<g id="graph0" class="graph" transform="scale(1 1) rotate(0) translate(18 395.23)">
<title>G</title>
<polygon fill="white" stroke="transparent" points="-18,18 -18,-395.23 391.03,-395.23 391.03,18 -18,18"/>
<!-- p -->
<g id="node1" class="node">
<title>p</title>
<ellipse fill="#f7f9fc" stroke="#355070" cx="186.51" cy="-353.73" rx="59.5" ry="23.5"/>
<text text-anchor="middle" x="186.51" y="-356.53" font-family="Lato" font-size="9.00">Perceptual</text>
<text text-anchor="middle" x="186.51" y="-346.53" font-family="Lato" font-size="9.00">Integration</text>
</g>
<!-- a -->
<g id="node3" class="node">
<title>a</title>
<ellipse fill="#f2ecfa" stroke="#355070" cx="186.51" cy="-277.53" rx="59.5" ry="23.5"/>
<text text-anchor="middle" x="186.51" y="-280.33" font-family="Lato" font-size="9.00">Multimodal</text>
<text text-anchor="middle" x="186.51" y="-270.33" font-family="Lato" font-size="9.00">Association</text>
</g>
<!-- p&#45;&gt;a -->
<g id="edge1" class="edge">
<title>p&#45;&gt;a</title>
<path fill="none" stroke="#7a869a" d="M186.51,-324.31C186.51,-318.57 186.51,-312.56 186.51,-306.82"/>
<polygon fill="#7a869a" stroke="#7a869a" points="184.59,-324.54 186.51,-330.04 188.44,-324.54 184.59,-324.54"/>
<polygon fill="#7a869a" stroke="#7a869a" points="188.44,-306.71 186.51,-301.21 184.59,-306.71 188.44,-306.71"/>
</g>
<!-- i -->
<g id="node2" class="node">
<title>i</title>
<ellipse fill="#f7f9fc" stroke="#355070" cx="59.5" cy="-290.23" rx="59.5" ry="23.5"/>
<text text-anchor="middle" x="59.5" y="-293.03" font-family="Lato" font-size="9.00">Interoceptive&#45;</text>
<text text-anchor="middle" x="59.5" y="-283.03" font-family="Lato" font-size="9.00">Motivational</text>
</g>
<!-- i&#45;&gt;a -->
<g id="edge2" class="edge">
<title>i&#45;&gt;a</title>
<path fill="none" stroke="#7a869a" d="M122.94,-283.88C123.05,-283.87 123.17,-283.86 123.28,-283.85"/>
<polygon fill="#7a869a" stroke="#7a869a" points="122.71,-281.97 117.43,-284.43 123.1,-285.8 122.71,-281.97"/>
<polygon fill="#7a869a" stroke="#7a869a" points="123.17,-285.79 128.45,-283.33 122.78,-281.96 123.17,-285.79"/>
</g>
<!-- t -->
<g id="node4" class="node">
<title>t</title>
<ellipse fill="#f7f9fc" stroke="#355070" cx="313.53" cy="-290.23" rx="59.5" ry="23.5"/>
<text text-anchor="middle" x="313.53" y="-293.03" font-family="Lato" font-size="9.00">Temporal&#45;</text>
<text text-anchor="middle" x="313.53" y="-283.03" font-family="Lato" font-size="9.00">Predictive</text>
</g>
<!-- t&#45;&gt;a -->
<g id="edge3" class="edge">
<title>t&#45;&gt;a</title>
<path fill="none" stroke="#7a869a" d="M250.09,-283.88C249.97,-283.87 249.86,-283.86 249.74,-283.85"/>
<polygon fill="#7a869a" stroke="#7a869a" points="249.93,-285.8 255.59,-284.43 250.31,-281.97 249.93,-285.8"/>
<polygon fill="#7a869a" stroke="#7a869a" points="250.24,-281.96 244.58,-283.33 249.86,-285.79 250.24,-281.96"/>
</g>
<!-- w -->
<g id="node5" class="node">
<title>w</title>
<ellipse fill="#f7f9fc" stroke="#355070" cx="288.12" cy="-188.62" rx="59.5" ry="23.5"/>
<text text-anchor="middle" x="288.12" y="-191.42" font-family="Lato" font-size="9.00">Working Context</text>
<text text-anchor="middle" x="288.12" y="-181.42" font-family="Lato" font-size="9.00">/ Executive</text>
</g>
<!-- t&#45;&gt;w -->
<g id="edge8" class="edge">
<title>t&#45;&gt;w</title>
<path fill="none" stroke="#7a869a" d="M306.24,-261.09C302.84,-247.48 298.8,-231.32 295.4,-217.72"/>
<polygon fill="#7a869a" stroke="#7a869a" points="304.43,-261.79 307.63,-266.66 308.17,-260.86 304.43,-261.79"/>
<polygon fill="#7a869a" stroke="#7a869a" points="297.18,-216.92 293.98,-212.06 293.45,-217.86 297.18,-216.92"/>
</g>
<!-- w&#45;&gt;a -->
<g id="edge4" class="edge">
<title>w&#45;&gt;a</title>
<path fill="none" stroke="#7a869a" d="M259.34,-213.8C245.59,-225.83 229.18,-240.19 215.42,-252.24"/>
<polygon fill="#7a869a" stroke="#7a869a" points="260.65,-215.21 263.53,-210.14 258.12,-212.31 260.65,-215.21"/>
<polygon fill="#7a869a" stroke="#7a869a" points="214.11,-250.82 211.24,-255.89 216.64,-253.72 214.11,-250.82"/>
</g>
<!-- m -->
<g id="node6" class="node">
<title>m</title>
<ellipse fill="#f7f9fc" stroke="#355070" cx="84.9" cy="-188.62" rx="59.5" ry="23.5"/>
<text text-anchor="middle" x="84.9" y="-191.42" font-family="Lato" font-size="9.00">Memory</text>
<text text-anchor="middle" x="84.9" y="-181.42" font-family="Lato" font-size="9.00">Interface</text>
</g>
<!-- m&#45;&gt;a -->
<g id="edge5" class="edge">
<title>m&#45;&gt;a</title>
<path fill="none" stroke="#7a869a" d="M113.69,-213.8C127.43,-225.83 143.85,-240.19 157.61,-252.24"/>
<polygon fill="#7a869a" stroke="#7a869a" points="114.91,-212.31 109.5,-210.14 112.37,-215.21 114.91,-212.31"/>
<polygon fill="#7a869a" stroke="#7a869a" points="156.38,-253.72 161.79,-255.89 158.92,-250.82 156.38,-253.72"/>
</g>
<!-- m&#45;&gt;w -->
<g id="edge9" class="edge">
<title>m&#45;&gt;w</title>
<path fill="none" stroke="#7a869a" d="M150.15,-188.62C173.45,-188.62 199.69,-188.62 222.98,-188.62"/>
<polygon fill="#7a869a" stroke="#7a869a" points="150,-186.69 144.5,-188.62 150,-190.54 150,-186.69"/>
<polygon fill="#7a869a" stroke="#7a869a" points="223.02,-190.54 228.52,-188.62 223.02,-186.69 223.02,-190.54"/>
</g>
<!-- act -->
<g id="node7" class="node">
<title>act</title>
<ellipse fill="#f7f9fc" stroke="#355070" cx="250.02" cy="-99.71" rx="59.5" ry="23.5"/>
<text text-anchor="middle" x="250.02" y="-102.51" font-family="Lato" font-size="9.00">Action and</text>
<text text-anchor="middle" x="250.02" y="-92.51" font-family="Lato" font-size="9.00">Planning</text>
</g>
<!-- act&#45;&gt;a -->
<g id="edge6" class="edge">
<title>act&#45;&gt;a</title>
<path fill="none" stroke="#7a869a" d="M239.65,-128.73C227.84,-161.8 208.65,-215.54 196.85,-248.58"/>
<polygon fill="#7a869a" stroke="#7a869a" points="241.55,-129.15 241.59,-123.32 237.92,-127.85 241.55,-129.15"/>
<polygon fill="#7a869a" stroke="#7a869a" points="194.92,-248.27 194.88,-254.1 198.54,-249.57 194.92,-248.27"/>
</g>
<!-- act&#45;&gt;w -->
<g id="edge10" class="edge">
<title>act&#45;&gt;w</title>
<path fill="none" stroke="#7a869a" d="M262.33,-128.43C266.69,-138.62 271.6,-150.07 275.96,-160.23"/>
<polygon fill="#7a869a" stroke="#7a869a" points="263.97,-127.36 260.03,-123.07 260.43,-128.88 263.97,-127.36"/>
<polygon fill="#7a869a" stroke="#7a869a" points="274.24,-161.12 278.18,-165.41 277.78,-159.6 274.24,-161.12"/>
</g>
<!-- soc -->
<g id="node8" class="node">
<title>soc</title>
<ellipse fill="#f7f9fc" stroke="#355070" cx="123.01" cy="-99.71" rx="59.5" ry="23.5"/>
<text text-anchor="middle" x="123.01" y="-102.51" font-family="Lato" font-size="9.00">Social and</text>
<text text-anchor="middle" x="123.01" y="-92.51" font-family="Lato" font-size="9.00">Communication</text>
</g>
<!-- soc&#45;&gt;a -->
<g id="edge7" class="edge">
<title>soc&#45;&gt;a</title>
<path fill="none" stroke="#7a869a" d="M133.37,-128.73C145.18,-161.8 164.37,-215.54 176.17,-248.58"/>
<polygon fill="#7a869a" stroke="#7a869a" points="135.1,-127.85 131.44,-123.32 131.48,-129.15 135.1,-127.85"/>
<polygon fill="#7a869a" stroke="#7a869a" points="174.48,-249.57 178.15,-254.1 178.11,-248.27 174.48,-249.57"/>
</g>
<!-- soc&#45;&gt;w -->
<g id="edge11" class="edge">
<title>soc&#45;&gt;w</title>
<path fill="none" stroke="#7a869a" d="M163.43,-121.48C189.07,-135.28 222.11,-153.07 247.74,-166.87"/>
<polygon fill="#7a869a" stroke="#7a869a" points="164.18,-119.69 158.43,-118.78 162.36,-123.08 164.18,-119.69"/>
<polygon fill="#7a869a" stroke="#7a869a" points="247,-168.66 252.76,-169.57 248.83,-165.27 247,-168.66"/>
</g>
<!-- flex -->
<g id="node9" class="node">
<title>flex</title>
<ellipse fill="#fff7e2" stroke="#355070" cx="186.51" cy="-23.5" rx="59.5" ry="23.5"/>
<text text-anchor="middle" x="186.51" y="-26.3" font-family="Lato" font-size="9.00">Flexible</text>
<text text-anchor="middle" x="186.51" y="-16.3" font-family="Lato" font-size="9.00">Reserve</text>
</g>
<!-- flex&#45;&gt;a -->
<g id="edge12" class="edge">
<title>flex&#45;&gt;a</title>
<path fill="none" stroke="#7a869a" stroke-dasharray="5,2" d="M186.51,-47.4C186.51,-94.14 186.51,-197.5 186.51,-248.25"/>
<polygon fill="#7a869a" stroke="#7a869a" points="184.59,-248.38 186.51,-253.88 188.44,-248.38 184.59,-248.38"/>
</g>
<!-- flex&#45;&gt;t -->
<g id="edge13" class="edge">
<title>flex&#45;&gt;t</title>
<path fill="none" stroke="#7a869a" stroke-dasharray="5,2" d="M185.01,-47.11C184.6,-62.3 185.08,-82.36 188.92,-99.66 198.23,-141.59 204.39,-151.97 227.02,-188.47 244.29,-216.32 268.85,-244.43 287.39,-264.03"/>
<polygon fill="#7a869a" stroke="#7a869a" points="286.3,-265.67 291.49,-268.32 289.09,-263.01 286.3,-265.67"/>
</g>
<!-- flex&#45;&gt;w -->
<g id="edge14" class="edge">
<title>flex&#45;&gt;w</title>
<path fill="none" stroke="#7a869a" stroke-dasharray="5,2" d="M182.88,-47.13C181.53,-62.69 181.76,-83.15 188.92,-99.66 201.04,-127.6 226.92,-150.32 249.21,-165.81"/>
<polygon fill="#7a869a" stroke="#7a869a" points="248.28,-167.51 253.91,-169.01 250.44,-164.32 248.28,-167.51"/>
</g>
<!-- flex&#45;&gt;act -->
<g id="edge15" class="edge">
<title>flex&#45;&gt;act</title>
<path fill="none" stroke="#7a869a" stroke-dasharray="5,2" d="M205.22,-45.95C212.27,-54.4 220.35,-64.1 227.69,-72.91"/>
<polygon fill="#7a869a" stroke="#7a869a" points="226.22,-74.16 231.22,-77.15 229.18,-71.69 226.22,-74.16"/>
</g>
<!-- flex&#45;&gt;soc -->
<g id="edge16" class="edge">
<title>flex&#45;&gt;soc</title>
<path fill="none" stroke="#7a869a" stroke-dasharray="5,2" d="M167.8,-45.95C160.76,-54.4 152.68,-64.1 145.34,-72.91"/>
<polygon fill="#7a869a" stroke="#7a869a" points="143.84,-71.69 141.8,-77.15 146.8,-74.16 143.84,-71.69"/>
</g>
</g>
</svg>
